<?xml version="1.0" encoding="UTF-8"?>
<!DOCTYPE svg PUBLIC "-//W3C//DTD SVG 1.0//EN" "http://www.w3.org/TR/2001/REC-SVG-20010904/DTD/svg10.dtd">
<!-- Creator: CorelDRAW X8 -->
<svg xmlns="http://www.w3.org/2000/svg" xml:space="preserve" width="150px" height="89px" version="1.0" style="shape-rendering:geometricPrecision; text-rendering:geometricPrecision; image-rendering:optimizeQuality; fill-rule:evenodd; clip-rule:evenodd"
viewBox="0 0 6253628 3720040"
 xmlns:xlink="http://www.w3.org/1999/xlink">
 <defs>
  <style type="text/css">
   <![CDATA[
    .fil5 {fill:#2E5B9A;fill-rule:nonzero}
    .fil1 {fill:#303C60;fill-rule:nonzero}
    .fil3 {fill:#6791C9;fill-rule:nonzero}
    .fil16 {fill:#74B570;fill-rule:nonzero}
    .fil4 {fill:#75A1DE;fill-rule:nonzero}
    .fil8 {fill:#7BCEE8;fill-rule:nonzero}
    .fil7 {fill:#9BD6E8;fill-rule:nonzero}
    .fil14 {fill:#9CD499;fill-rule:nonzero}
    .fil12 {fill:#9EC8FF;fill-rule:nonzero}
    .fil9 {fill:#D54A41;fill-rule:nonzero}
    .fil2 {fill:#E38540;fill-rule:nonzero}
    .fil0 {fill:#E7F3FE;fill-rule:nonzero}
    .fil6 {fill:#F09959;fill-rule:nonzero}
    .fil11 {fill:#F2E5DE;fill-rule:nonzero}
    .fil15 {fill:#F37168;fill-rule:nonzero}
    .fil10 {fill:#F39892;fill-rule:nonzero}
    .fil13 {fill:white;fill-rule:nonzero}
   ]]>
  </style>
 </defs>
 <g id="Layer_x0020_1">
  <metadata id="CorelCorpID_0Corel-Layer"/>
  <g id="_1298118438256">
   <path class="fil0" d="M2292954 3658930c-1592951,-92726 -2870445,-1778015 -2022803,-2756067 657411,-758553 1533972,345567 2351521,-210709 1257770,-855800 3295494,-1011410 3565200,67428 269705,1078822 -623705,2764492 -1289540,2865634 -665852,101135 -2604378,33714 -2604378,33714z"/>
   <path class="fil1" d="M2499460 1374846c16857,404562 12637,623705 -134857,792259 -147493,168579 -560480,126433 -560480,126433 0,0 -40737,595612 -618075,620877 -577354,25290 -660230,-741688 -207907,-938351 430581,-187194 567504,-241605 716407,-705163 136023,-423485 560488,-342756 661639,-165769 101126,176996 143273,269714 143273,269714z"/>
   <path class="fil2" d="M2309820 3439788c0,0 272516,53382 286570,50571 14038,-2802 311836,-134865 342748,-115188 30903,19659 210718,95520 250037,112386 39328,16857 -22478,22470 -53374,22470 -30911,0 -207899,-73050 -227575,-58995 -19659,14046 154525,42138 154525,53382 0,11235 -466361,117991 -494453,117991 -28109,0 -244424,-19676 -244424,-19676l-14054 -162941z"/>
   <path class="fil3" d="M2083654 1951487c146797,28805 233197,184140 261289,320212 28093,136064 -261289,-320212 -261289,-320212z"/>
   <path class="fil4" d="M1837829 1846837c0,0 -282342,189640 -434056,282342 -137773,84196 19862,915581 87866,1345376 250815,102326 521144,168069 801332,184375l0 0c0,0 15067,527 42487,1394 61831,-20138 100786,-35108 100786,-35108 0,0 -58996,-311852 16857,-813337 54330,-359216 -144683,-584368 -258462,-740295 -287186,-393521 -356810,-224747 -356810,-224747z"/>
   <path class="fil3" d="M1559699 2133391c324489,396138 434169,470193 353991,737492 -63216,210702 -84286,286555 -96930,358203 -12637,71633 602627,-46351 602627,-46351l-4204 231771c0,0 -240666,115092 -465397,199297 -208191,-42398 -408119,-110888 -595402,-199823l205315 -1280589z"/>
   <path class="fil5" d="M5623038 3720040l-3839288 0c-27704,0 -50174,-22470 -50174,-50198 0,-27704 22470,-50175 50174,-50175l3839288 0c27720,0 50190,22471 50190,50175 0,27728 -22470,50198 -50190,50198z"/>
   <path class="fil6" d="M1941782 1447896l-146092 432647c0,0 160147,434064 295004,337142 46026,-33099 -16866,-294995 -16866,-294995l98324 -351181 -230370 -123613z"/>
   <path class="fil6" d="M1475422 2116542c-201751,22414 -219143,294987 -311853,750121 -92718,455133 -64860,755540 -21069,813337 105347,139061 1289532,-345567 1437025,-341355 101799,2917 16865,-168562 16865,-168562l-1129417 172783c0,0 160154,-526783 160154,-796472 0,-269705 -75861,-438284 -151705,-429852z"/>
   <path class="fil6" d="M2524742 3178515c117999,-29502 290774,-96930 324489,-67428 33714,29502 172783,240203 219142,299207 46351,58996 -21069,12645 -71633,-33714 -50579,-46351 -92726,-71649 -92726,-71649 0,0 -63200,59012 -122196,92726 -59012,33698 -80081,-33714 -181215,-50579 -101143,-16849 -354000,71649 -354000,71649l278139 -240212z"/>
   <path class="fil4" d="M1497892 2082828c-123621,5622 -219142,109567 -252840,269705 -33730,160131 -132062,668655 -132062,668655 0,0 -19660,14038 185420,50563 205104,36525 373667,-5622 373667,-5622 0,0 42130,-289365 30903,-488832 -11235,-199482 -56185,-387713 -129227,-452330 -73050,-64626 -75861,-42139 -75861,-42139z"/>
   <path class="fil2" d="M2073828 1922690l98324 -351181 -230370 -123613 -35196 104213c-7647,348887 81726,465583 141945,508232 18817,13333 34994,3038 48562,-18728 -9899,-63249 -23265,-118923 -23265,-118923z"/>
   <path class="fil6" d="M2541599 1488633c0,187956 -22431,418415 -185412,412987 -252857,-8432 -412185,-204982 -412185,-392930 0,-187971 132200,-340341 295287,-340341 163071,0 302310,132321 302310,320284z"/>
   <path class="fil7" d="M4428557 3619513l-947862 0 389885 -857751c11389,-25031 36338,-41102 63831,-41102l860231 0c19919,0 33123,20583 24901,38696l-390986 860157z"/>
   <path class="fil7" d="M4426499 3619513l-1748642 0c0,-60923 49388,-110320 110312,-110320l1638330 0 0 110320z"/>
   <path class="fil8" d="M4794642 2720660l-758083 0c-27493,0 -52459,16071 -63832,41102l-389884 857751 845714 0 390986 -860157c8222,-18113 -4982,-38696 -24901,-38696z"/>
   <path class="fil1" d="M2263461 1103034c179101,-12645 285161,151001 316064,294291 22301,103378 11244,123621 11244,123621 0,0 -19676,28093 -160139,36509 -140470,8433 -157335,5622 -157335,5622l-8417 -162941 -42147 157319c0,0 -22478,30920 -109567,-11243 -87104,-42131 -126440,-182601 -126440,-182601 0,0 -19652,-92710 47768,-154517 67429,-61815 228969,-106060 228969,-106060z"/>
   <path class="fil9" d="M2130216 1525798c-17181,113683 -107923,194250 -202690,179920 -94752,-14313 -157652,-118089 -140463,-231779 17181,-113690 107915,-194241 202682,-179920 94760,14314 157652,118089 140471,231779z"/>
   <path class="fil10" d="M2061759 1522753c-15902,105273 -90410,181305 -166400,169810 -75999,-11478 -124715,-106124 -108806,-211390 15901,-105266 90409,-181297 166408,-169819 75991,11479 124707,106133 108798,211399z"/>
   <path class="fil11" d="M1945630 1499237c-8748,57829 -40259,101029 -70385,96477 -30118,-4545 -47469,-55132 -38728,-112962 8748,-57837 40259,-101037 70377,-96476 30125,4544 47460,55124 38736,112961z"/>
   <path class="fil9" d="M1941070 1296879c82179,-305526 365858,-260965 437588,-218430 60405,35829 68821,86392 68821,86392 0,0 -77951,-63208 -210701,-40033 -125963,21993 -200876,96226 -211415,178397 -5370,41888 -84293,-6326 -84293,-6326z"/>
   <path class="fil1" d="M680343 2283177l-615 -32c-3581,-332 -6189,-3508 -5849,-7088 7388,-77254 45986,-156680 108725,-223622 70944,-75707 171900,-135343 291949,-172475 267518,-82731 500877,-187940 647528,-639161 1118,-3410 4771,-5281 8190,-4172 3410,1102 5273,4772 4171,8190 -67396,207372 -159133,358349 -280454,461574 -106991,91033 -227535,140186 -375587,185978 -117903,36469 -216907,94889 -286312,168944 -60778,64869 -98169,141564 -105274,215983 -332,3370 -3159,5881 -6472,5881z"/>
   <path class="fil1" d="M801146 1971325c-1936,0 -3848,-867 -5120,-2511 -2211,-2835 -1693,-6918 1142,-9121 1134,-883 115448,-88409 280714,-124829 317304,-69915 530331,-260706 616050,-551756 1029,-3443 4617,-5403 8068,-4390 3451,1012 5419,4617 4407,8068 -52953,179798 -152589,321694 -296113,421743 -92419,64431 -203314,111203 -329617,139029 -162285,35755 -274436,121547 -275546,122414 -1183,907 -2592,1353 -3985,1353z"/>
   <path class="fil12" d="M4869353 1878048l-855857 0c-8019,0 -12166,-6505 -9250,-14524l173593 -476965c2932,-8011 11802,-14516 19830,-14516l855848 0c8020,0 12127,6505 9210,14516l-173569 476965c-2916,8019 -11794,14524 -19805,14524z"/>
   <path class="fil13" d="M4859008 1855755l-818958 0c-7493,0 -11357,-6075 -8627,-13560l158073 -434299c2729,-7501 11008,-13568 18509,-13568l818926 0c7477,0 11373,6067 8611,13568l-158016 434299c-2762,7485 -11057,13560 -18518,13560z"/>
   <path class="fil12" d="M4844225 1827468l-768825 0c-8408,0 -12758,-6820 -9696,-15245l136266 -374363c3054,-8425 12370,-15254 20794,-15254l768825 0c8384,0 12774,6829 9680,15254l-136250 374363c-3038,8425 -12402,15245 -20794,15245z"/>
   <path class="fil13" d="M4673961 1625037c-28254,77587 -114006,140487 -191593,140487 -77570,0 -117578,-62900 -89380,-140487 28270,-77586 114079,-140478 191649,-140478 77586,0 117587,62892 89324,140478z"/>
   <path class="fil12" d="M4654479 1625037c-24366,66805 -98202,120965 -165006,120965 -66805,0 -101240,-54160 -76939,-120965 24318,-66804 98202,-120956 165007,-120956 66756,0 101240,54152 76938,120956z"/>
   <polygon class="fil13" points="4595467,1618581 4541988,1644098 4488444,1669631 4507067,1618581 4525625,1567516 4560546,1593049 "/>
   <path class="fil14" d="M3558517 1198207c-15367,0 -33836,13730 -39522,29380l-24545 67429c-2325,6375 -2203,12126 332,15739 2754,3921 7817,4747 11584,4747l67428 0c15626,0 33731,-13463 39514,-29381l24545 -67428c2325,-6391 2203,-12126 -332,-15739 -2738,-3921 -7809,-4747 -11576,-4747l-67428 0zm15277 143273l-67428 0c-13852,0 -25824,-5759 -32864,-15820 -7468,-10668 -8740,-25071 -3467,-39539l24537 -67428c9485,-26067 37578,-46481 63945,-46481l67428 0c13852,0 25833,5776 32864,15837 7468,10660 8732,25071 3467,39538l-24545 67429c-9493,26059 -37578,46464 -63937,46464z"/>
   <path class="fil14" d="M3454223 1484761c-15367,0 -33836,13731 -39538,29381l-24545 67428c-2308,6391 -2195,12127 349,15756 2737,3920 7816,4730 11575,4730l67429 0c15633,0 33722,-13446 39522,-29380l24536 -67412c2325,-6392 2195,-12135 -332,-15756 -2738,-3920 -7801,-4747 -11584,-4747l-67412 0zm15270 143290l-67429 0c-13844,0 -25816,-5776 -32872,-15820 -7460,-10669 -8724,-25088 -3459,-39555l24545 -67412c9477,-26068 37570,-46481 63945,-46481l67412 0c13852,0 25833,5776 32880,15820 7461,10669 8724,25071 3459,39539l-24536 67428c-9494,26068 -37578,46481 -63945,46481z"/>
   <path class="fil12" d="M3349913 1771332c-15626,0 -33730,13447 -39530,29381l-24536 67420c-2325,6383 -2196,12126 340,15747 2746,3921 7809,4747 11575,4747l67429 0c15626,0 33730,-13447 39522,-29380l24544 -67429c2325,-6391 2196,-12126 -340,-15755 -2730,-3921 -7809,-4731 -11575,-4731l-67429 0zm15278 143273l-67429 0c-13835,0 -25824,-5759 -32863,-15820 -7477,-10660 -8725,-25071 -3459,-39538l24536 -67429c9486,-26059 37578,-46480 63937,-46480l67429 0c13835,0 25824,5775 32863,15828 7477,10660 8724,25079 3475,39547l-24544 67420c-9494,26067 -37570,46472 -63945,46472z"/>
   <path class="fil12" d="M4128540 1286356l-370840 0c-6959,0 -10580,-5686 -8044,-12645 2527,-6958 10304,-12644 17246,-12644l370848 0c6942,0 10571,5686 8044,12644 -2544,6959 -10296,12645 -17254,12645z"/>
   <path class="fil12" d="M4110143 1336928l-370856 0c-6950,0 -10563,-5695 -8044,-12653 2528,-6951 10304,-12637 17246,-12637l370848 0c6959,0 10571,5686 8044,12637 -2527,6958 -10287,12653 -17238,12653z"/>
   <path class="fil12" d="M4031917 1551850l-370848 0c-6958,0 -10571,-5695 -8044,-12653 2527,-6951 10288,-12629 17238,-12629l370856 0c6950,0 10563,5678 8036,12629 -2536,6958 -10296,12653 -17238,12653z"/>
   <path class="fil12" d="M4013505 1602413l-370849 0c-6958,0 -10571,-5695 -8027,-12645 2527,-6942 10288,-12637 17238,-12637l370848 0c6942,0 10571,5695 8036,12637 -2528,6950 -10288,12645 -17246,12645z"/>
   <path class="fil12" d="M3924545 1846837l-370848 0c-6950,0 -10563,-5695 -8036,-12645 2520,-6942 10280,-12637 17238,-12637l370848 0c6959,0 10571,5695 8044,12637 -2535,6950 -10288,12645 -17246,12645z"/>
   <path class="fil12" d="M3906141 1897400l-370848 0c-6950,0 -10571,-5687 -8036,-12645 2527,-6958 10288,-12637 17246,-12637l370848 0c6942,0 10555,5679 8028,12637 -2528,6958 -10288,12645 -17238,12645z"/>
   <path class="fil15" d="M3558104 1303562c-1143,0 -2293,-154 -3427,-462 -3920,-1069 -7120,-3904 -8627,-7687l-25460 -63208c-2681,-6667 551,-14225 7202,-16906 6650,-2673 14224,551 16897,7193l19061 47307 150426 -115950c5678,-4383 13851,-3322 18218,2365 4390,5678 3329,13836 -2350,18218l-164018 126424c-2301,1774 -5087,2706 -7922,2706z"/>
   <path class="fil15" d="M3453794 1590124c-1134,0 -2293,-145 -3411,-453 -3920,-1078 -7120,-3921 -8635,-7696l-25459 -63208c-2682,-6658 542,-14224 7193,-16906 6658,-2681 14232,551 16905,7202l19053 47307 150434 -115967c5694,-4366 13844,-3313 18226,2365 4374,5679 3329,13844 -2365,18235l-164003 126416c-2300,1766 -5103,2705 -7938,2705z"/>
   <polygon class="fil12" points="5905898,953427 4481510,953427 4518318,852284 5942723,852284 "/>
   <polygon class="fil12" points="5850685,1105132 4426289,1105132 4463097,1004006 5887494,1004006 "/>
   <path class="fil12" d="M4271829 2317944l-1045958 0c-13674,0 -20786,-11170 -15813,-24844 4974,-13673 20227,-24844 33893,-24844l1045966 0c13690,0 20786,11171 15804,24844 -4973,13674 -20194,24844 -33892,24844z"/>
   <path class="fil12" d="M4231659 2428386l-1045983 0c-13682,0 -20786,-11170 -15820,-24852 4990,-13657 20235,-24844 33892,-24844l1045999 0c13641,0 20794,11187 15812,24844 -4982,13682 -20251,24852 -33900,24852z"/>
   <path class="fil14" d="M5210837 3362226c0,-17546 211357,-601760 68432,-977841 -100049,-263339 -115861,-579339 -115861,-579339 0,0 -194824,279127 -63175,705730 81045,262569 114135,335320 121110,412558 7039,77246 -31568,463469 -31568,463469l21062 -24577z"/>
   <path class="fil16" d="M5158273 1825686c-16023,27599 -47097,88028 -69673,174501 -29121,111381 -49647,290054 17805,508678 27396,88708 49105,155189 66594,208611 34435,105339 50126,153415 54841,205266 6115,67583 -21661,362505 -29608,444190l6440 -7493c753,-3855 3030,-11567 8765,-30879 122074,-408094 142220,-724976 59773,-941875 -84787,-223095 -109421,-486742 -114937,-560999zm31502 1567621c-858,0 -1733,-170 -2592,-518 -2600,-1118 -4172,-3799 -3896,-6626 372,-3856 38493,-386482 31608,-462238 -4593,-50401 -20130,-98040 -54233,-202415 -17497,-53463 -39255,-120008 -66642,-208814 -68490,-221832 -47485,-403258 -17870,-516414 32207,-122819 79960,-192078 81961,-194954 1571,-2284 4439,-3297 7096,-2527 2705,753 4544,3135 4706,5913 170,3151 16889,318041 115472,577354 53439,140648 64156,326093 31884,551238 -25768,179733 -71730,333375 -91382,398972 -4439,14954 -8335,27858 -8554,30248 0,1547 -534,2762 -1563,3928l-21070 24593c-1296,1459 -3078,2260 -4925,2260z"/>
   <path class="fil14" d="M5256475 3421926c-31608,-649569 122900,-1004192 438892,-1285084 316000,-280900 330022,-354623 330022,-354623 0,0 -49154,547738 -231707,737330 -182601,189608 -449439,330062 -488045,428362 -38664,98323 -24577,428361 -24577,428361l-24585 59693 0 -14039z"/>
   <path class="fil14" d="M5217827 3478103c-3459,-10538 66756,-607439 323031,-642530 256340,-35123 316000,24569 491562,-3524 125274,-20040 221208,-59692 221208,-59692 0,0 -66481,169235 -294939,238770 -161491,49145 -372201,-31616 -495085,-10547 -122884,21077 -186060,284408 -186060,284408l-21069 136938 -38648 56177z"/>
   <path class="fil16" d="M5252959 3389792c-3297,0 -6164,-2527 -6440,-5897 -437,-4204 -36760,-423542 141192,-744588 91964,-165850 192346,-261962 289414,-354907 90458,-86586 175893,-168376 240632,-297935 1629,-3208 5525,-4496 8717,-2892 3256,1596 4544,5500 2932,8700 -65784,131568 -152022,214112 -243290,301500 -96379,92288 -196032,187704 -287049,351828 -175999,317498 -140041,732939 -139660,737095 373,3580 -2284,6739 -5848,7072l-600 24z"/>
   <path class="fil16" d="M5235422 3305531c-600,0 -1256,-89 -1839,-260 -3419,-1004 -5411,-4601 -4447,-8051 67242,-231658 144391,-366823 242747,-425349 87979,-52353 178931,-36282 275189,-19271 23548,4156 47906,8465 72054,11633 209130,27428 311172,-23394 312152,-23913 3200,-1628 7096,-381 8773,2795 1620,3191 381,7112 -2811,8756 -4228,2196 -106060,53277 -319848,25241 -24358,-3199 -48886,-7533 -72604,-11721 -93804,-16574 -182374,-32232 -266247,17643 -95375,56752 -170685,189511 -236898,417815 -810,2827 -3411,4682 -6221,4682z"/>
   <path class="fil16" d="M5570741 2404919c-1936,0 -3896,-875 -5144,-2527 -2211,-2843 -1669,-6918 1134,-9113 1256,-964 126149,-96137 299443,-129397 3507,-673 6925,1628 7630,5160 648,3524 -1628,6926 -5152,7598 -170304,32685 -292767,125987 -293958,126935 -1191,899 -2600,1344 -3953,1344z"/>
   <path class="fil16" d="M5372336 2687569c-1150,0 -2284,-299 -3305,-915 -3086,-1823 -4115,-5816 -2268,-8902 91438,-154177 198518,-193035 432006,-266223 3403,-1069 7040,843 8117,4269 1086,3419 -802,7072 -4220,8133 -230240,72151 -335765,110377 -424757,260463 -1191,2041 -3354,3175 -5573,3175z"/>
   <path class="fil10" d="M5315543 3637861l-156784 0c-55383,0 -102917,-39336 -113310,-93714l-50563 -264424 484522 0 -50555 264424c-10393,54378 -57935,93714 -113310,93714z"/>
   <path class="fil9" d="M5467128 3347135l-456430 0c-7209,0 -12993,-5816 -12993,-13002 0,-7168 5784,-12985 12993,-12985l456430 0c7201,0 12985,5817 12985,12985 0,7186 -5784,13002 -12985,13002z"/>
  </g>
 </g>
</svg>
