<svg height="512pt" viewBox="-51 0 512 512" width="512pt" xmlns="http://www.w3.org/2000/svg"><path d="m307.199219 145.066406s9.925781-77.785156-8.53125-102.398437c-25.601563-34.132813-93.867188-34.132813-93.867188-34.132813s-68.265625 0-93.867187 34.132813c-18.460938 24.613281-8.535156 102.398437-8.535156 102.398437l100.1875 59.734375zm0 0" fill="#7facfa"/><path d="m279.328125 151.003906s8.464844-81.167968-7.277344-106.851562c-21.832031-35.617188-80.050781-35.617188-80.050781-35.617188s-58.21875 0-80.050781 35.617188c-15.742188 25.683594-7.277344 106.851562-7.277344 106.851562l85.441406 62.328125zm0 0" fill="#a4c2f7"/><path d="m401.066406 406.273438c.011719 21.253906-8.425781 41.640624-23.453125 56.671874-15.03125 15.027344-35.417969 23.46875-56.675781 23.453126l-30.804688 17.066406h-170.667968l-30.804688-17.066406c-42.910156-.007813-78.203125-33.816407-80.054687-76.6875-1.851563-42.875 30.390625-79.597657 73.144531-83.3125l68.605469-5.972657h108.886719l68.609374 5.972657c41.417969 3.621093 73.203126 38.296874 73.214844 79.875zm0 0" fill="#cad9fc"/><path d="m375.464844 406.273438c.015625 21.253906-8.421875 41.640624-23.453125 56.671874-15.03125 15.027344-35.417969 23.46875-56.671875 23.453126l-30.804688 17.066406h-145.070312l-30.804688-17.066406c-42.910156-.007813-78.203125-33.816407-80.054687-76.6875-1.851563-42.875 30.390625-79.597657 73.144531-83.3125l68.605469-5.972657h83.289062l68.605469 5.972657c41.421875 3.621093 73.207031 38.296874 73.214844 79.875zm0 0" fill="#e8edfc"/><path d="m257.195312 314.539062-52.394531 52.394532-52.394531-52.394532c4.261719-13.144531 7.125-26.703124 8.53125-40.449218l87.636719-.167969c1.492187 13.792969 4.378906 27.402344 8.621093 40.617187zm0 0" fill="#a4c2f7"/><path d="m349.867188 443.734375v34.132813l-2.945313 4.21875c-8.363281 2.863281-17.144531 4.320312-25.984375 4.3125l-30.804688 17.066406h-170.667968l-30.804688-17.066406c-8.839844.007812-17.617187-1.449219-25.980468-4.3125l-2.945313-4.21875v-34.132813c0-9.425781 7.640625-17.066406 17.066406-17.066406h256c9.425781 0 17.066407 7.640625 17.066407 17.066406zm0 0" fill="#cad9fc"/><path d="m332.800781 409.601562v68.265626c0 14.136718-11.460937 25.597656-25.601562 25.597656h-204.800781c-14.136719 0-25.597657-11.460938-25.597657-25.597656v-68.265626" fill="#e8edfc"/><path d="m290.046875 151.296875c5.890625-4.695313 25.6875-18.089844 25.6875 18.773437 0 35.070313-22.359375 41.726563-30.890625 43.007813h-160.085938c-8.535156-1.28125-30.890624-7.9375-30.890624-43.007813 0-36.863281 19.796874-23.46875 25.683593-18.773437zm0 0" fill="#e8edfc"/><path d="m290.132812 144.980469v.085937c0 2.132813 0 4.179688-.085937 6.230469.273437 20.667969-1.933594 41.292969-6.570313 61.4375-2.269531 9.019531-5.414062 17.792969-9.386718 26.199219-12.117188 25.601562-33.195313 51.199218-69.289063 51.199218-4.261719-.011718-8.515625-.382812-12.714843-1.109374h-.171876c-28.5-5.289063-45.992187-27.5625-56.574218-50.089844-3.945313-8.410156-7.0625-17.183594-9.300782-26.199219-4.597656-20.148437-6.773437-40.773437-6.488281-61.4375-.085937-2.050781-.085937-4.097656-.085937-6.230469 4.625-13.808594 7.492187-28.144531 8.535156-42.667968 0-17.066407 8.535156-42.664063 25.601562-51.199219 1.457032-.738281 2.96875-1.367188 4.519532-1.875 11.351562-4.097657 19.457031-.511719 33.878906 1.109375 4.25.5 8.523438.753906 12.800781.765625 7.066407-.019531 14.117188-.648438 21.078125-1.875 9.917969-3.179688 20.671875-2.511719 30.121094 1.875 17.066406 8.535156 25.601562 34.132812 25.601562 51.199219 1.019532 14.5 3.886719 28.808593 8.53125 42.582031zm0 0" fill="#cad9fc"/><path d="m264.535156 144.980469v.085937c0 2.132813 0 4.179688-.085937 6.230469.269531 20.667969-1.9375 41.292969-6.570313 61.4375-2.273437 9.019531-5.414062 17.792969-9.386718 26.199219-10.582032 22.355468-28.078126 44.800781-56.40625 50.089844h-.171876c-28.5-5.289063-45.992187-27.5625-56.574218-50.089844-3.945313-8.410156-7.0625-17.183594-9.300782-26.199219-4.597656-20.148437-6.773437-40.773437-6.488281-61.4375-.085937-2.050781-.085937-4.097656-.085937-6.230469 4.625-13.808594 7.492187-28.144531 8.535156-42.667968 0-17.066407 8.535156-42.664063 25.601562-51.199219 1.457032-.738281 2.96875-1.367188 4.519532-1.875 6.960937 1.226562 14.011718 1.855469 21.078125 1.875 4.277343-.011719 8.550781-.265625 12.800781-.765625 14.421875-1.621094 22.527344-5.207032 33.878906-1.109375 1.550782.507812 3.0625 1.136719 4.519532 1.875 17.066406 8.535156 25.601562 34.132812 25.601562 51.199219 1.023438 14.5 3.890625 28.808593 8.535156 42.582031zm0 0" fill="#e8edfc"/><path d="m230.398438 503.464844-17.066407-98.132813h-17.066406l-17.066406 98.132813zm0 0" fill="#a4c2f7"/><path d="m226.988281 389.121094-1.878906 7.59375c-1.464844 5.9375-6.042969 10.609375-11.945313 12.203125-1.496093.445312-3.046874.675781-4.609374.683593h-7.507813c-1.5625-.007812-3.113281-.238281-4.609375-.683593-5.90625-1.59375-10.480469-6.265625-11.945312-12.203125l-1.878907-7.59375 19.796875-24.578125 2.390625 2.390625.765625-.769532zm0 0" fill="#a4c2f7"/><path d="m204.800781 366.933594-34.132812 34.132812s-42.667969-42.667968-51.203125-76.800781l17.070312-25.597656zm0 0" fill="#e8edfc"/><path d="m290.132812 324.265625c-8.53125 34.132813-51.199218 76.800781-51.199218 76.800781l-34.132813-34.132812 68.265625-68.265625zm0 0" fill="#e8edfc"/><path d="m124.757812 213.078125h1.382813c2.226563 8.894531 5.308594 17.550781 9.199219 25.855469 6 13.421875 14.796875 25.410156 25.804687 35.15625h-.207031c-1.363281 12.941406-3.992188 25.71875-7.847656 38.148437l9.042968-13.570312 15.871094 15.871093c4.265625-13.144531 7.125-26.703124 8.535156-40.449218h.203126c-11.007813-9.746094-19.804688-21.734375-25.804688-35.15625-3.890625-8.304688-6.96875-16.960938-9.199219-25.855469h-1.382812c-8.53125-1.28125-30.890625-7.9375-30.890625-43.007813 0-16.832031 4.136718-23.125 9.183594-24.617187l-.648438-.386719s-9.925781-77.785156 8.535156-102.398437c4.03125-5.195313 8.894532-9.6875 14.394532-13.292969 17.953124-12.425781 39.039062-19.5625 60.851562-20.585938-4.347656-.246093-6.980469-.253906-6.980469-.253906s-2.632812.007813-6.980469.253906c-3.636718-.25-5.820312-.253906-5.820312-.253906s-40.566406.082032-66.671875 20.84375c-5.5 3.605469-10.363281 8.09375-14.394531 13.289063-18.460938 24.613281-8.535156 102.398437-8.535156 102.398437l.648437.386719c-5.042969 1.492187-9.179687 7.785156-9.179687 24.617187 0 35.070313 22.355468 41.726563 30.890624 43.007813zm0 0" fill="#fff"/><path d="m59.988281 481.109375c.855469.328125 1.746094.570313 2.617188.871094l.074219.105469c.765624.265624 1.566406.457031 2.34375.699218.914062.28125 1.824218.570313 2.75.820313 1.355468.363281 2.730468.667969 4.113281.960937.886719.191406 1.765625.402344 2.664062.5625 1.183594.210938 2.382813.355469 3.582031.511719 3.347657 10.589844 13.160157 17.800781 24.265626 17.824219h25.601562c-11.105469-.023438-20.917969-7.230469-24.265625-17.820313-1.203125-.160156-2.402344-.304687-3.585937-.511719-.898438-.164062-1.777344-.371093-2.664063-.5625-1.382813-.296874-2.757813-.597656-4.109375-.964843-.929688-.25-1.839844-.535157-2.75-.816407-.78125-.242187-1.578125-.4375-2.347656-.699218l-.074219-.109375c-.867187-.296875-1.761719-.539063-2.613281-.867188-34.863282-13.371093-55.875-49.039062-50.675782-86.015625 5.199219-36.972656 35.238282-65.460937 72.433594-68.695312l38.53125-3.355469 6.015625-9.019531-15.359375-15.359375-16.253906 24.378906-38.53125 3.351563c-37.199219 3.238281-67.234375 31.726562-72.433594 68.699218-5.203125 36.972656 15.8125 72.640625 50.671875 86.011719zm0 0" fill="#fff"/><path d="m204.800781 59.734375h-1.195312c-4.714844 0-8.535157-3.820313-8.535157-8.535156 0-4.710938 3.820313-8.53125 8.535157-8.53125h1.195312c4.710938 0 8.53125 3.820312 8.53125 8.53125 0 4.714843-3.820312 8.535156-8.53125 8.535156zm0 0" fill="#428dff"/><path d="m204.800781 298.667969c-33.234375 0-59.925781-19.402344-77.183593-56.105469-4.179688-8.894531-7.476563-18.179688-9.851563-27.71875-4.785156-20.800781-7.050781-42.105469-6.75-63.453125-.082031-1.90625-.082031-4.070313-.082031-6.324219-.023438-4.710937 3.777344-8.550781 8.492187-8.574218 4.710938-.023438 8.550781 3.777343 8.574219 8.488281v.085937c0 2.011719 0 3.949219.074219 5.882813-.3125 20.074219 1.777343 40.109375 6.226562 59.683593 2.105469 8.480469 5.035157 16.730469 8.75 24.636719 14.457031 30.753907 35.222657 46.332031 61.75 46.332031 26.316407 0 47.03125-15.585937 61.574219-46.316406 3.742188-7.910156 6.703125-16.164062 8.832031-24.652344 4.484375-19.484374 6.601563-39.441406 6.308594-59.433593.085937-2.183594.085937-4.121094.085937-6.132813-.023437-4.710937 3.777344-8.550781 8.492188-8.574218 4.710938-.023438 8.550781 3.777343 8.574219 8.488281 0 2.339843 0 4.5-.089844 6.65625.28125 21.269531-2.015625 42.492187-6.835937 63.207031-2.394532 9.550781-5.726563 18.84375-9.941407 27.742188-17.359375 36.6875-43.992187 56.082031-77 56.082031zm0 0" fill="#428dff"/><path d="m124.765625 221.609375c-.425781.003906-.851563-.03125-1.273437-.09375-8.949219-1.34375-38.160157-9.035156-38.160157-51.445313 0-6.367187 0-25.738281 12.757813-31.886718 7.484375-3.609375 17.019531-1.335938 26.777344 6.4375 2.472656 1.871094 3.738281 4.9375 3.304687 8.007812-.433594 3.070313-2.5 5.664063-5.398437 6.773438-2.894532 1.109375-6.164063.558594-8.539063-1.4375-4.71875-3.753906-7.917969-4.617188-8.785156-4.382813.027343 0-3.050781 2.648438-3.050781 16.488281 0 26.988282 14.800781 33.242188 23.625 34.570313 4.414062.664063 7.570312 4.617187 7.238281 9.066406-.328125 4.453125-4.03125 7.894531-8.496094 7.902344zm0 0" fill="#428dff"/><path d="m284.832031 221.609375c-4.460937-.007813-8.164062-3.449219-8.492187-7.902344-.332032-4.449219 2.824218-8.402343 7.234375-9.066406 8.824219-1.328125 23.625-7.582031 23.625-34.570313 0-13.855468-3.082031-16.496093-3.117188-16.519531-3.292969.53125-6.335937 2.074219-8.714843 4.414063-2.375 1.996094-5.644532 2.546875-8.542969 1.4375-2.894531-1.109375-4.960938-3.703125-5.398438-6.773438-.433593-3.070312.832031-6.136718 3.308594-8.007812 9.742187-7.773438 19.273437-10.046875 26.773437-6.4375 12.757813 6.148437 12.757813 25.519531 12.757813 31.886718 0 42.410157-29.207031 50.097657-38.15625 51.445313-.421875.0625-.847656.097656-1.277344.09375zm0 0" fill="#428dff"/><path d="m82.484375 334.902344c-34.289063 2.992187-61.605469 29.945312-65.054687 64.191406-.230469 2.386719-.339844 4.78125-.363282 7.179688h-17.066406c.0273438-2.964844.160156-5.925782.449219-8.875 4.265625-42.417969 38.097656-75.800782 80.566406-79.5zm0 0" fill="#fff"/><g fill="#428dff"><path d="m42.191406 340.984375c2.566406 3.632813 7.402344 4.84375 11.378906 2.84375 8.898438-4.984375 18.753907-8.027344 28.914063-8.925781l-1.46875-17.003906c-12.589844 1.109374-24.800781 4.878906-35.824219 11.0625-2.105468 1.085937-3.644531 3.03125-4.21875 5.332031-.574218 2.300781-.132812 4.738281 1.21875 6.691406zm0 0"/><path d="m0 406.273438h17.066406c.027344-2.398438.132813-4.792969.363282-7.179688.261718-2.527344.652343-5.039062 1.175781-7.527344.683593-4.394531-1.929688-8.632812-6.164063-9.988281-2.265625-.703125-4.726562-.394531-6.746094.851563-2.019531 1.246093-3.40625 3.300781-3.796874 5.640624-.644532 3.082032-1.128907 6.195313-1.449219 9.328126-.289063 2.949218-.4218752 5.910156-.449219 8.875zm0 0"/><path d="m30.933594 363.933594c1.171875-1.714844 1.695312-3.789063 1.480468-5.855469l-.335937-1.554687c-.160156-.550782-.382813-1.078126-.667969-1.574219-.207031-.5-.480468-.972657-.816406-1.398438-.355469-.449219-.742188-.875-1.152344-1.273437-2.59375-2.476563-6.558594-2.832032-9.554687-.863282-3.203125 1.925782-4.929688 5.585938-4.378907 9.277344.257813 1.121094.742188 2.171875 1.433594 3.089844.648438.910156 1.480469 1.671875 2.441406 2.242188 1.953126 1.074218 4.210938 1.453124 6.410157 1.078124 2.039062-.40625 3.863281-1.527343 5.140625-3.167968zm0 0"/><path d="m81.742188 334.933594c-4.5625-.015625-8.304688-3.613282-8.5-8.171875-.191407-4.554688 3.230468-8.460938 7.773437-8.863281l38.570313-3.328126c2.261718-.21875 4.511718.480469 6.25 1.941407 1.738281 1.460937 2.8125 3.5625 2.984374 5.824219.195313 2.257812-.511718 4.496093-1.96875 6.226562-1.457031 1.734375-3.542968 2.816406-5.796874 3.007812l-38.570313 3.328126c-.25.027343-.5.035156-.742187.035156zm0 0"/><path d="m78.09375 494.164062c-.371094.003907-.742188-.023437-1.109375-.070312-44.027344-5.878906-76.921875-43.40625-76.984375-87.820312 0-4.714844 3.820312-8.535157 8.535156-8.535157 4.710938 0 8.53125 3.820313 8.53125 8.535157.042969 35.847656 26.585938 66.140624 62.117188 70.898437 4.460937.578125 7.707031 4.519531 7.417968 9.007813-.289062 4.492187-4.011718 7.984374-8.507812 7.988281zm0 0"/><path d="m331.507812 494.164062c-4.5 0-8.222656-3.496093-8.511718-7.984374-.285156-4.488282 2.960937-8.433594 7.421875-9.011719 36.191406-4.824219 62.949219-36.117188 62.097656-72.621094-.851563-36.5-29.039063-66.511719-65.414063-69.648437l-38.550781-3.328126c-2.253906-.191406-4.339843-1.273437-5.796875-3.007812-1.457031-1.730469-2.164062-3.972656-1.96875-6.226562.164063-2.265626 1.238282-4.371094 2.976563-5.832032 1.738281-1.464844 3.996093-2.160156 6.257812-1.933594l38.570313 3.328126c45.054687 3.890624 79.960937 41.078124 80.996094 86.292968 1.035156 45.210938-32.132813 83.953125-76.964844 89.902344-.367188.050781-.742188.074219-1.113282.070312zm0 0"/><path d="m307.199219 512h-204.800781c-18.839844-.019531-34.113282-15.289062-34.132813-34.132812v-51.199219c0-4.714844 3.820313-8.535157 8.535156-8.535157 4.710938 0 8.53125 3.820313 8.53125 8.535157v51.199219c.011719 9.421874 7.648438 17.054687 17.066407 17.066406h204.800781c9.421875-.011719 17.054687-7.644532 17.066406-17.066406v-51.199219c0-4.714844 3.820313-8.535157 8.535156-8.535157 4.710938 0 8.53125 3.820313 8.53125 8.535157v51.199219c-.019531 18.84375-15.289062 34.113281-34.132812 34.132812zm0 0"/><path d="m152.40625 323.070312c-2.746094 0-5.324219-1.324218-6.925781-3.550781-1.605469-2.230469-2.039063-5.09375-1.167969-7.699219 4.082031-12.558593 6.8125-25.515624 8.140625-38.65625.511719-4.683593 4.726563-8.066406 9.410156-7.558593 4.683594.511719 8.070313 4.726562 7.558594 9.410156-1.460937 14.355469-4.453125 28.515625-8.925781 42.234375-1.167969 3.472656-4.421875 5.816406-8.089844 5.820312zm0 0"/><path d="m257.195312 323.070312c-3.671874 0-6.933593-2.351562-8.09375-5.835937-4.433593-13.765625-7.449218-27.945313-9-42.324219-.542968-4.679687 2.804688-8.914062 7.484376-9.464844 2.253906-.289062 4.53125.339844 6.3125 1.75 1.78125 1.410157 2.917968 3.480469 3.15625 5.738282 1.414062 13.214844 4.171874 26.25 8.230468 38.90625 1.492188 4.46875-.921875 9.300781-5.390625 10.792968-.871093.289063-1.78125.4375-2.699219.4375zm0 0"/><path d="m102.390625 153.601562c-4.292969-.007812-7.914063-3.199218-8.457031-7.457031-1.058594-8.3125-9.785156-81.984375 10.171875-108.597656 27.84375-37.121094 97.734375-37.546875 100.695312-37.546875 3.046875 0 5.867188 1.625 7.390625 4.261719 1.527344 2.640625 1.527344 5.894531.003906 8.535156-1.523437 2.640625-4.339843 4.269531-7.386718 4.269531-.640625 0-64.332032.433594-87.050782 30.71875-13.417968 17.898438-9.523437 75.515625-6.890624 96.203125.589843 4.671875-2.71875 8.945313-7.390626 9.539063-.359374.050781-.722656.074218-1.085937.074218zm0 0"/><path d="m307.207031 153.601562c-.359375 0-.722656-.023437-1.082031-.074218-4.675781-.59375-7.984375-4.863282-7.390625-9.539063 2.632813-20.6875 6.523437-78.304687-6.894531-96.199219-22.773438-30.371093-86.398438-30.722656-87.039063-30.722656-4.714843 0-8.535156-3.820312-8.535156-8.53125 0-4.714844 3.820313-8.535156 8.535156-8.535156 2.957031 0 72.847657.425781 100.691407 37.546875 19.960937 26.613281 11.234374 100.285156 10.175781 108.601563-.546875 4.257812-4.167969 7.445312-8.460938 7.453124zm0 0"/><path d="m119.464844 153.601562c-2.742188 0-5.316406-1.316406-6.921875-3.542968-1.605469-2.222656-2.042969-5.085938-1.175781-7.6875 4.332031-12.941406 7.054687-26.363282 8.097656-39.972656 0-21.167969 10.625-48.984376 30.316406-58.832032 10.304688-5.054687 22.101562-6.152344 33.160156-3.085937 7.203125 1.390625 14.519532 2.125 21.859375 2.1875 4.710938 0 8.53125 3.820312 8.53125 8.53125 0 4.714843-3.820312 8.535156-8.53125 8.535156-8.300781-.058594-16.574219-.871094-24.726562-2.429687-7.476563-2.367188-15.566407-1.820313-22.65625 1.527343-12.492188 6.246094-20.882813 27.570313-20.882813 43.566407-1.03125 15.445312-4.046875 30.695312-8.976562 45.367187-1.160156 3.484375-4.421875 5.835937-8.09375 5.835937zm0 0"/><path d="m290.132812 153.605469c-3.671874-.003907-6.929687-2.355469-8.089843-5.839844-4.933594-14.671875-7.949219-29.921875-8.976563-45.367187 0-15.996094-8.390625-37.320313-20.882812-43.566407-7.089844-3.347656-15.183594-3.894531-22.660156-1.527343-8.148438 1.558593-16.425782 2.371093-24.722657 2.429687-4.714843 0-8.535156-3.820313-8.535156-8.535156 0-4.710938 3.820313-8.53125 8.535156-8.53125 7.335938-.0625 14.652344-.796875 21.855469-2.1875 11.058594-3.066407 22.859375-1.96875 33.160156 3.085937 19.691406 9.847656 30.316406 37.664063 30.316406 58.832032 1.042969 13.605468 3.761719 27.03125 8.09375 39.96875.863282 2.601562.429688 5.460937-1.175781 7.6875-1.601562 2.226562-4.175781 3.546874-6.917969 3.550781zm0 0"/><path d="m170.667969 409.601562c-2.265625 0-4.4375-.898437-6.035157-2.5-1.808593-1.808593-44.441406-44.75-53.441406-80.765624-.585937-2.332032-.15625-4.800782 1.175782-6.800782l17.066406-25.601562c1.417968-2.128906 3.714844-3.503906 6.257812-3.753906 2.546875-.265626 5.074219.636718 6.875 2.457031l68.265625 68.265625c1.601563 1.601562 2.5 3.769531 2.5 6.035156 0 2.261719-.898437 4.433594-2.5 6.03125l-34.132812 34.132812c-1.597657 1.601563-3.769531 2.503907-6.03125 2.5zm-41.917969-83.875c7.449219 23.476563 31 51.027344 42.082031 63.105469l21.902344-21.898437-54.875-54.871094zm0 0"/><path d="m238.933594 409.601562c-2.265625 0-4.433594-.898437-6.035156-2.5l-34.132813-34.136718c-1.601563-1.597656-2.5-3.769532-2.5-6.03125 0-2.261719.898437-4.433594 2.5-6.035156l68.269531-68.265626c1.804688-1.804687 4.328125-2.707031 6.871094-2.457031 2.546875.253907 4.84375 1.632813 6.261719 3.757813l17.066406 25.601562c1.332031 2 1.757813 4.46875 1.171875 6.800782-9 36.011718-51.632812 78.957031-53.441406 80.765624-1.597656 1.601563-3.769532 2.5-6.03125 2.5zm-22.066406-42.667968 21.898437 21.894531c11.085937-12.085937 34.632813-39.660156 42.085937-63.101563l-9.109374-13.664062zm0 0"/><path d="m208.554688 418.132812h-7.507813c-2.378906-.003906-4.742187-.351562-7.019531-1.027343-8.804688-2.433594-15.613282-9.429688-17.808594-18.296875l-1.882812-7.640625c-1.039063-4.539063 1.75-9.074219 6.273437-10.191407 4.519531-1.113281 9.101563 1.597657 10.292969 6.101563l1.878906 7.59375c1.054688 3.710937 4.40625 6.304687 8.265625 6.394531h7.507813c.746093-.003906 1.488281-.121094 2.199218-.339844 2.996094-.761718 5.332032-3.105468 6.078125-6.105468l1.863281-7.550782c1.15625-4.542968 5.765626-7.304687 10.320313-6.179687 4.550781 1.125 7.34375 5.714844 6.25 10.277344l-1.878906 7.59375c-2.222657 8.960937-9.128907 16.007812-18.042969 18.40625-2.207031.640625-4.492188.964843-6.789062.964843zm0 0"/><path d="m179.207031 512c-.511719 0-1.027343-.046875-1.535156-.136719-2.226563-.402343-4.203125-1.675781-5.492187-3.535156-1.285157-1.863281-1.78125-4.160156-1.375-6.386719l17.066406-93.867187c.460937-3.078125 2.5625-5.660157 5.480468-6.742188 2.917969-1.078125 6.195313-.484375 8.546876 1.554688 2.355468 2.039062 3.410156 5.195312 2.757812 8.238281l-17.066406 93.867188c-.734375 4.054687-4.261719 7.003906-8.382813 7.007812zm0 0"/><path d="m230.390625 512c-4.121094-.003906-7.648437-2.953125-8.382813-7.007812l-17.066406-93.867188c-.652344-3.042969.402344-6.199219 2.757813-8.238281 2.351562-2.039063 5.628906-2.632813 8.546875-1.554688 2.917968 1.082031 5.019531 3.664063 5.480468 6.742188l17.066407 93.867187c.40625 2.226563-.089844 4.523438-1.375 6.386719-1.289063 1.859375-3.265625 3.132813-5.492188 3.535156-.507812.089844-1.019531.136719-1.535156.136719zm0 0"/></g></svg>