<?xml version="1.0" encoding="UTF-8"?>
<!DOCTYPE svg PUBLIC "-//W3C//DTD SVG 1.1//EN" "http://www.w3.org/Graphics/SVG/1.1/DTD/svg11.dtd">
<!-- Creator: CorelDRAW X8 -->
<svg xmlns="http://www.w3.org/2000/svg" xml:space="preserve" width="50px" height="50px" version="1.1" style="shape-rendering:geometricPrecision; text-rendering:geometricPrecision; image-rendering:optimizeQuality; fill-rule:evenodd; clip-rule:evenodd"
viewBox="0 0 101 101"
 xmlns:xlink="http://www.w3.org/1999/xlink">
 <defs>
  <style type="text/css">
   <![CDATA[
    .fil1 {fill:#025905}
    .fil3 {fill:#040604}
    .fil14 {fill:#042703}
    .fil6 {fill:#045504}
    .fil10 {fill:#045C05}
    .fil4 {fill:#0A0A04}
    .fil11 {fill:#0A5B04}
    .fil23 {fill:#0B4A13}
    .fil21 {fill:#0B540B}
    .fil15 {fill:#0B5B0B}
    .fil22 {fill:#0C4C0C}
    .fil19 {fill:#135313}
    .fil18 {fill:#153115}
    .fil36 {fill:#175718}
    .fil32 {fill:#265827}
    .fil16 {fill:#2C150D}
    .fil51 {fill:#50714E}
    .fil50 {fill:#676867}
    .fil47 {fill:#718E6F}
    .fil53 {fill:#777877}
    .fil52 {fill:#88847E}
    .fil31 {fill:#8F918E}
    .fil49 {fill:#92CA93}
    .fil37 {fill:#979998}
    .fil24 {fill:#A0D09F}
    .fil29 {fill:#A39D9F}
    .fil27 {fill:#A7A8A7}
    .fil28 {fill:#AFB1AE}
    .fil48 {fill:#B4EDB4}
    .fil33 {fill:#B7B8B7}
    .fil42 {fill:#C85837}
    .fil39 {fill:#CE6F4D}
    .fil43 {fill:#CEB5AF}
    .fil41 {fill:#CF6832}
    .fil40 {fill:#D09071}
    .fil34 {fill:#D0F0CE}
    .fil45 {fill:#D2948A}
    .fil44 {fill:#D2AD8F}
    .fil46 {fill:#D34F2F}
    .fil35 {fill:#D75727}
    .fil30 {fill:#D9FAD9}
    .fil25 {fill:#E75517}
    .fil26 {fill:#E75626}
    .fil20 {fill:#E7FADA}
    .fil17 {fill:#E8FAE6}
    .fil38 {fill:#EB4E2F}
    .fil13 {fill:#EBFDEB}
    .fil9 {fill:#F4450B}
    .fil2 {fill:#F44B0A}
    .fil7 {fill:#F4F4F4}
    .fil8 {fill:#F4FCF4}
    .fil5 {fill:#FA4901}
    .fil12 {fill:#FAFAF6}
    .fil0 {fill:#FDF9F9}
   ]]>
  </style>
 </defs>
 <g id="Layer_x0020_1">
  <metadata id="CorelCorpID_0Corel-Layer"/>
  <g id="logo-svg.svg">
   <g id="Layer_x0020_1_0">
    <g id="_656802688">
     <path class="fil0" d="M49 76c3,-2 4,3 2,4 -3,2 -4,-3 -2,-4zm11 2c1,0 0,-1 1,1 0,0 0,0 0,0 0,0 -1,0 -1,-1 -1,0 -2,-1 -3,-2 -6,-3 -6,-2 -6,-6 3,0 7,5 9,8l0 0zm-19 0c0,0 0,0 -1,0 0,1 0,1 -1,1 1,-1 1,-1 2,-1 0,-2 5,-8 8,-8 -1,4 0,3 -3,5 -1,0 -4,2 -5,3zm25 -11c3,-2 6,3 3,4 -2,1 -4,0 -4,-3 0,-1 0,-1 1,-1zm-33 0c3,-2 4,3 1,4 -3,2 -5,-3 -1,-4zm4 0c1,0 2,-1 3,-2 0,0 0,0 0,0 1,3 0,10 -1,12 0,-2 0,-3 -1,-5 0,-1 -1,-3 -1,-5l0 0zm24 10c-1,-2 -2,-10 0,-12 5,4 1,3 0,12zm1 -14c5,-2 8,-1 13,-1 -4,1 -9,4 -10,3 0,0 -2,-2 -3,-2zm-25 1c-2,2 -1,1 -4,0l-7 -2c6,-1 8,0 13,1l-2 1 0 0zm-9 -5c-1,1 -1,1 -3,2 1,0 1,-1 1,-1 1,-1 0,-1 1,-1 4,-6 1,-6 6,-7 0,4 -4,6 -5,7l0 0zm46 1c1,0 1,0 1,0 0,0 0,0 0,0 0,0 0,0 1,1 -2,-1 -1,0 -2,-1 -1,-1 -3,-3 -4,-3 -1,-2 -2,-2 -3,-5l4 1c0,0 3,7 3,7l0 0zm-49 -11c4,-1 6,4 2,5 -3,1 -6,-4 -2,-5zm48 0c3,-1 5,3 2,4 -3,1 -5,-2 -2,-4zm-14 6c-1,1 0,1 -1,2 -1,1 -1,0 -1,1 -1,1 -3,2 -4,2 -1,0 -1,1 -2,1 -1,1 -1,1 -2,1 -1,0 0,0 -1,0 -1,0 0,0 -1,0 -1,0 -1,-1 -2,-1 -1,-1 -1,0 -1,-1l-1 0 0 -2c-1,1 -2,0 -2,-1 -1,-3 -3,-1 -4,-3l0 -9c0,0 0,0 0,0 1,0 4,1 5,1 1,0 4,-3 10,-2 1,0 1,-1 2,0 2,2 -1,2 11,0l0 9c-5,0 -4,0 -6,2zm8 -5c1,-3 6,-7 8,-8 -1,1 -1,1 -2,2l-2 4c-1,2 0,2 -4,2l0 0zm-33 0c-4,0 -3,0 -5,-3l-3 -5c2,2 7,5 8,8l0 0zm-8 -9c2,-1 5,-2 7,-3 0,0 2,-1 3,-1 0,1 2,2 3,2 -3,1 -3,2 -6,2 -3,0 -5,0 -7,0l0 0zm35 -3c0,0 1,-1 2,-1 1,0 2,1 3,1 1,0 2,1 3,1 1,1 1,1 2,1l0 0 1 1c-4,0 -9,-1 -11,-3l0 0zm-23 -3c0,0 1,-7 1,-10 1,3 2,10 1,13 -1,-1 -1,-1 -2,-3l0 0zm21 2c0,-3 0,-4 1,-7 0,-1 1,-4 1,-5l1 9c0,1 -2,2 -3,3zm-26 -6c2,-1 5,4 2,5 -3,1 -5,-4 -2,-5zm33 0c3,-1 4,3 1,5 -3,1 -4,-4 -1,-5zm-17 -9c3,0 4,5 2,6 -3,1 -4,-5 -2,-6zm10 4c-1,1 -5,6 -8,6l1 -3c0,0 6,-4 6,-4 1,-1 1,-1 2,-1 0,1 0,1 -1,2zm-18 -1c6,5 8,2 8,8 -3,-1 -7,-5 -9,-8l-1 -1c0,-1 0,0 0,-1 0,1 0,0 1,1l1 1zm-25 28c1,13 10,24 22,29 5,2 10,3 15,2 8,0 18,-5 23,-11 5,-5 10,-13 9,-24 -1,-10 -5,-17 -12,-23 -1,-1 -3,-2 -5,-3 -23,-14 -53,3 -52,30z"/>
     <path class="fil1" d="M46 93l-1 0c0,-1 0,-2 0,-3 0,-2 0,-1 1,-1l0 4zm5 -3c1,0 -1,0 1,0 0,0 0,0 0,0 0,0 0,0 -1,0 -2,0 -2,3 -1,3 0,0 1,0 0,-1 0,0 0,-1 0,-1 0,0 0,0 1,0 2,2 -1,3 -2,2 -2,-1 0,-3 2,-3l0 0zm6 5c1,-1 1,-1 1,-1 -1,-1 -1,0 -2,0 0,-1 0,-1 1,-1l0 -1 0 -3 1 -1 0 4 -1 0 1 1c1,0 2,1 -1,2 -2,0 -3,0 -4,-1l0 0c0,0 0,-1 0,-1 0,0 -1,-1 -1,-2 1,-1 2,-1 4,-1 -1,0 -1,0 -2,0 -1,1 -1,2 0,3l0 0c1,1 1,2 3,2l0 0zm12 -4c0,-1 0,0 1,-2 -1,1 -1,1 -2,1 0,0 1,-1 1,-1 2,-1 2,1 0,2 -1,1 -2,1 -3,1 -1,0 -1,-1 -1,-1l0 0c0,0 1,0 1,0 -1,0 0,0 -1,0l-3 -1c1,-1 1,-1 2,-1 1,0 2,0 3,0l-1 2c1,0 1,0 3,0l0 0zm-25 0c0,2 -4,2 -4,0 0,-2 4,-3 4,-1l0 0c0,0 -2,-2 -2,0 -1,0 -1,1 0,1 1,1 2,0 2,0l0 0zm-6 0l-1 0 1 -4c1,0 0,0 1,0l-1 4 0 0zm10 -2l7 -1c-1,1 -2,1 -3,1l-3 0c-2,0 -1,0 -1,0l0 0zm-4 -1l-4 0c1,-1 -1,-1 1,-1l3 1c0,0 0,0 0,0zm22 0c0,-1 1,-1 1,-2 0,1 0,1 -1,2zm-2 1c1,-1 2,-2 -1,-2 1,-1 2,-1 3,-1 0,2 -1,3 -2,3l0 0zm-3 -2c1,0 0,0 1,0 0,0 1,-1 1,-1 0,1 -1,1 -2,1zm8 2l-1 -4 1 -1 0 5 0 0zm-34 -4c0,0 0,0 0,0 2,0 1,0 1,1 1,0 0,0 1,0 0,1 0,0 0,1 0,1 0,0 0,1 -2,0 -1,0 -1,0 -1,0 0,0 -1,1 0,0 0,0 -1,0 -1,1 -3,-1 -2,-2l1 -1c0,0 0,0 0,0l0 -1c0,0 0,-1 1,0 1,0 1,0 1,0l0 0zm30 1c1,-1 1,-1 2,-1 -1,1 -1,1 -2,1zm-38 0c0,0 0,0 -1,0 0,0 0,0 0,0 0,-1 0,-1 0,-1 0,0 1,-1 1,-2 0,-1 0,-1 1,-1 0,0 0,0 0,0 0,1 0,3 -1,4l0 0zm-1 -4c0,0 0,1 0,1 0,1 0,0 0,0 -2,2 -5,-2 -3,-3 2,0 3,0 3,2 0,0 1,0 0,0zm0 -1c0,-1 0,-1 0,-1 -1,0 0,0 -1,0 1,0 1,0 1,0 0,0 0,0 0,1zm-1 -1c0,0 0,0 -1,-1 0,0 0,0 0,0 0,0 1,0 1,0 0,1 0,0 0,1zm3 2c-1,-1 -1,-1 -1,-1l-1 0c0,-1 -1,-3 -1,-4 1,1 1,0 1,2 2,0 3,1 3,1 0,0 0,1 0,1 -1,-1 0,-2 -2,-2 0,1 1,2 1,3l0 0 0 0zm-10 -6c0,0 0,2 1,3 -2,-1 -3,-4 -3,-5 1,0 0,0 1,1 0,0 0,0 1,1zm62 2c0,2 -1,4 -2,5 0,1 -2,1 -3,2l-1 0c-1,0 0,0 -1,0l0 1 0 0 -1 1c0,-1 0,-1 -1,-2 0,0 0,-1 0,-2l0 0c0,0 0,0 0,0 0,0 0,1 0,0l-1 0c0,0 0,0 0,0 -1,-1 1,-3 2,-3 1,-1 3,-1 4,-2 0,0 0,0 0,1 0,0 0,0 1,0 0,-1 0,-1 0,-1 0,0 1,-1 1,-1 1,0 1,0 1,-1l3 -3 -2 3 2 3c-1,0 0,0 -1,0l0 1c0,0 0,0 0,0l-1 -2 0 0zm-60 -3c0,0 0,0 0,0 0,0 0,0 0,0l3 3c1,0 1,0 1,1 0,0 -1,-1 -1,-1 -1,0 0,0 -1,0l-1 3 -1 -1c1,-3 0,-1 0,-3 1,0 1,1 1,0 0,-1 0,-1 -1,-1 0,0 0,0 0,0 0,0 0,0 0,0 0,1 0,1 0,1 -1,0 -2,0 -2,-1 0,0 0,0 0,0l1 0c0,-1 -1,-2 -1,-3 1,1 2,1 2,2l0 0zm-3 -3c1,0 0,0 1,0 0,1 0,1 0,1 -1,0 -1,0 -1,-1l0 0zm65 1c0,0 0,0 1,-1 0,0 0,0 0,0 0,0 0,0 0,0 0,0 0,0 0,1 0,0 0,0 -1,0 0,0 0,0 0,0zm-65 -1c0,0 0,1 0,-1l0 1zm71 0c0,-1 -1,-1 0,-2 0,1 1,1 0,1 0,1 0,1 0,1l0 0zm-1 -2c0,-1 0,-1 0,-1 0,0 1,0 0,1 0,0 0,0 0,0zm-1 1l1 2 -1 1c0,0 0,0 0,0 0,0 0,0 0,0 0,0 0,0 0,0l-1 -1c0,0 0,-1 -1,-1 0,1 -1,1 -1,3 1,-1 1,-1 1,-1l1 0c0,0 0,1 0,2 0,0 0,0 0,0 -1,1 -2,2 -2,2 -1,0 -1,-1 -1,-1 -1,-1 2,-4 2,-5l0 -1 -1 1c1,-1 2,-3 3,-3l0 2zm-82 -18c0,0 0,0 0,1 0,0 0,0 0,0 0,1 0,1 0,2 1,11 6,21 14,29 9,7 21,13 33,13 6,0 14,-2 19,-5 1,0 1,0 1,0 3,-1 7,-4 10,-6 0,-1 1,-1 1,-2 3,-2 5,-4 7,-7 2,-2 3,-5 4,-8 3,-7 4,-11 5,-18l-12 0c-1,2 -1,5 -1,7 -1,3 -2,5 -3,7 -5,12 -20,20 -33,19 -14,-1 -26,-9 -31,-22 -2,-5 -3,-9 -2,-15 -1,1 -1,1 -1,2 0,0 0,1 0,1l0 1c0,0 0,0 0,0l-11 1z"/>
     <path class="fil2" d="M13 49l-8 -1c0,-1 1,-3 1,-4 2,0 7,1 8,1 0,2 0,3 -1,4zm79 -4l3 -1 0 2 -8 1 0 -1 2 -2c0,0 0,0 0,0 -1,0 -1,1 -2,1l-1 -2c2,0 8,-1 8,-1l1 1c-2,1 -2,1 -3,2l0 0zm-86 -3l1 -1c0,0 7,1 7,2l0 1 -7 -2c0,0 -1,0 -1,0l0 0zm87 -2c0,1 -3,1 -4,2 -3,0 -4,-2 -3,-3 0,-1 6,-3 7,-2 1,1 1,2 0,3zm-85 -5c1,0 7,2 8,3l0 1 -3 0c0,0 0,0 0,0l2 1 0 1c-1,0 -7,-2 -8,-2l1 -2 3 0 -3 -1 0 -1 0 0zm77 2l-1 -1c1,-1 6,-3 7,-4l1 2c-1,0 -6,3 -7,3zm-71 -6c2,0 3,1 4,2 0,1 -1,3 -2,4 -1,-1 -5,-3 -7,-4 1,-5 5,-4 5,-2l0 0zm73 -3c1,0 1,0 1,0 1,0 2,2 3,3 -2,1 -1,1 -3,0 -1,1 -3,2 -5,3l-1 -1c1,-1 4,-3 6,-3l-1 -2 0 0zm-74 -1c0,-1 1,-2 1,-2 1,0 7,3 7,4l-1 1c-3,-1 -1,0 0,1 -1,1 -1,1 -2,1 -1,-1 -4,-3 -5,-5zm68 4c0,0 0,0 -1,-1l0 0c0,0 0,0 0,1l0 -2c-1,0 -1,0 -1,-1 1,-1 6,-4 7,-4l2 2 -6 6c-1,0 0,0 0,0l-1 -1 0 0zm-5 -6c0,-1 5,-5 6,-6 4,3 1,5 0,6 -1,1 -2,2 -3,2 -1,0 -3,-2 -3,-2l0 0zm-54 1c0,0 0,0 0,0l1 1 -1 1c-1,0 -6,-5 -6,-5 0,-1 0,-1 0,-1 2,0 3,1 4,1l-3 -2 1 -1c1,0 1,1 2,1 0,1 1,1 1,2 1,1 2,1 3,2 0,1 0,1 -1,1l-1 0 0 0zm-2 -8c1,0 2,-1 2,-1 1,-1 2,0 3,0 0,1 1,2 2,2 0,1 1,2 1,3 0,1 -2,2 -3,3 -1,-1 -4,-6 -5,-7l0 0zm57 1c0,0 1,-1 1,-2 1,0 1,0 2,1 -1,0 -4,6 -5,6l-1 -1 1 -3c-1,1 -1,2 -2,2 -1,0 -1,0 -1,0l5 -7 1 1 -1 3 0 0zm-28 -12l2 0 0 6c0,0 0,0 0,0 0,1 0,0 0,0 1,1 1,0 1,1l0 1 -3 0 0 -8zm-19 11l-1 0 0 0c1,1 2,2 2,3l-2 0c0,0 -4,-5 -4,-6 1,-1 1,-1 1,-1 1,1 1,2 2,2 0,-1 -1,-2 -1,-3l2 -1c0,1 4,6 4,7 -1,1 -1,1 -2,1 0,0 -1,-2 -1,-2l0 0zm40 1c0,0 0,0 1,-1 0,-1 0,-1 1,-2 0,-1 1,-2 1,-3l2 1c0,1 -2,3 -2,4 -1,1 -2,3 -4,2 -2,-1 -1,-3 0,-4 0,-1 2,-3 2,-4l2 1c-1,1 -3,5 -3,6l0 0zm-1 -6c-1,1 -2,4 -3,5 -1,1 -3,-1 -3,-3 1,-1 2,-4 2,-5 2,-1 5,0 4,3l0 0zm-14 -1l-1 3 -1 0 0 -8c2,0 3,0 4,1 1,5 -1,4 -2,4l0 0zm-20 4l0 1 0 -1c0,-1 -2,-4 -2,-6l1 0c1,1 2,2 2,4 1,2 2,3 0,4 -3,1 -3,-1 -4,-2 0,-2 -1,-3 -2,-5l2 0c1,1 2,5 3,5l0 0zm27 -2l-1 2 -2 0c0,-2 2,-6 2,-8l3 1c0,0 0,1 0,1 -1,1 0,0 -1,0 0,0 -2,0 -1,2 1,1 1,-1 1,1 0,1 -1,0 -1,1l0 0zm-23 -6c0,-1 1,0 2,0l2 0 1 8 -2 0 0 0 -2 0 -2 -7 1 -1 0 0zm8 1l0 1c0,1 0,0 1,0l0 2 -1 0 0 1 1 1 0 1 -3 0c0,-2 -1,-6 0,-8l3 0 0 2c-1,0 0,0 -1,0l0 0 0 0zm-43 44l11 -1c0,0 0,0 0,0l0 -1c0,0 0,-1 0,-1 0,-1 0,-1 1,-2 0,-2 0,-6 4,-13 3,-7 10,-13 18,-16 13,-5 28,-2 38,8 6,6 9,14 10,25l12 0c-1,-9 -2,-13 -4,-20l-2 -4c-2,-3 -5,-8 -8,-10 -14,-14 -35,-18 -53,-10 -5,3 -11,7 -14,10 -6,7 -10,15 -12,24 -1,2 -2,9 -1,11l0 0z"/>
     <path class="fil3" d="M98 52c-1,7 -2,11 -5,18 -1,3 -2,6 -4,8 -2,3 -4,5 -7,7 0,1 -1,1 -1,2 -3,2 -7,5 -10,6 0,0 0,0 -1,0 -5,3 -13,5 -19,5 -12,0 -24,-6 -33,-13 -8,-8 -13,-18 -14,-29 0,-1 0,-1 0,-2 0,0 0,0 0,0 0,-1 0,-1 0,-1 -1,-2 0,-9 1,-11 2,-9 6,-17 12,-24 3,-3 9,-7 14,-10 18,-8 39,-4 53,10 3,2 6,7 8,10l2 4c2,7 3,11 4,20l0 0zm-49 -52l0 1c0,0 0,0 0,0l-2 1c0,1 0,1 -1,1 0,0 2,-2 2,-2 -2,-1 -2,0 -3,0 -1,1 -1,1 -1,2 -1,0 -1,1 -2,1 1,-1 2,-2 2,-3 -2,0 -1,0 -3,1 0,0 0,1 -1,2 0,0 0,0 -1,1l1 -3c-1,0 -1,0 -2,0l-1 1c0,0 0,1 0,1 -1,2 -1,1 -1,2 0,-2 0,-2 1,-3 -2,0 -2,0 -3,1 0,1 -1,1 -1,2 0,1 0,1 -1,1l1 -3 -1 0c-1,1 -1,1 -2,1 0,1 0,2 0,2 0,1 0,1 -1,1l1 -3 -1 1c-1,0 -1,0 -2,1 0,1 0,3 -1,3l0 -3c-1,0 -1,1 -2,2 0,0 0,1 0,2 0,1 0,1 -1,1l0 -3 -1 0c0,1 -1,1 -1,2l-1 3c0,0 0,-1 0,-3l0 0c-1,1 -2,1 -2,2 0,2 0,3 0,4 -1,-1 -1,0 -1,-2 0,0 0,-1 0,-1 -1,0 -1,1 -2,2 0,1 1,2 0,3l0 -3 -1 1c-1,0 -1,0 -1,1 0,2 1,3 0,4l-1 -3 -1 0 0 1c-1,3 0,2 0,5 -1,-1 -1,0 -1,-1 0,-1 0,-1 0,-2l-1 0c0,1 0,1 -1,2 0,1 0,1 1,2 1,2 0,2 0,2 0,-1 0,-1 -1,-1 0,-2 0,-2 -1,-2 0,1 0,0 0,1 -1,3 1,3 0,5 0,0 0,0 0,0 -1,-3 0,-3 -2,-2 0,0 0,0 0,1 0,3 2,3 1,5 -1,-1 -1,-2 -2,-3l0 0 -1 1c0,2 1,2 2,4 0,1 0,1 0,1 -1,-1 -1,-1 -2,-3l0 0 0 1c-1,1 -1,2 0,3 1,2 1,1 1,3l-2 -3c0,0 0,0 0,0 -1,1 -1,1 -1,2l1 2c1,1 1,1 2,1l0 1 -1 0 0 0c0,-1 -1,-2 -2,-3l0 1c-1,1 0,1 0,2 0,0 0,0 0,0l0 1 1 0c1,2 2,1 1,3l0 -1c-1,-1 -2,-2 -3,-2 0,1 0,2 1,3 1,1 1,2 2,2l0 1c-1,0 0,0 -1,-1 -1,-1 -1,-1 -2,-1 0,2 0,1 0,3 1,0 1,0 1,0l0 0 2 2 0 1c0,-1 0,-1 -1,-1 0,-1 -1,-1 -1,-1l0 0c-1,1 0,1 0,2l0 1c1,0 1,0 2,1 1,0 1,0 1,1 -1,0 -2,-1 -3,-2l0 2 1 1c0,1 1,1 1,1 1,1 1,0 2,1 -1,0 -2,-1 -4,-1 0,2 1,2 1,3 1,0 1,0 2,1 1,0 1,0 1,1 0,-1 -2,-1 -3,-1 1,2 1,1 2,2 0,1 1,1 1,1 1,0 1,0 2,1l-3 -1 0 2 1 1c1,0 1,0 2,0 1,1 1,1 1,1l-3 0 1 1c0,0 0,1 1,1 1,0 2,0 3,1l-3 0 0 1 1 1c1,0 1,0 2,1 2,0 1,0 2,0l-3 0 0 1c1,1 1,1 2,1 1,1 2,0 3,1 -1,0 0,0 -1,0 -1,0 -1,0 -2,0l0 1c1,0 1,1 2,1 1,0 2,0 3,1l-2 0 0 1 1 1c1,0 1,0 2,0 2,0 1,0 2,0l-3 1 0 0 1 1 1 0 3 0c0,1 -1,1 -2,1l0 1c0,0 1,0 1,1 2,0 2,-1 4,-1 0,1 -1,1 -2,1l0 1 1 1c1,0 2,0 3,0 0,-1 1,-1 1,-1l-2 1 0 1 1 1c1,0 2,0 3,-1 2,-1 1,0 2,0l-3 1c1,2 0,0 2,1 1,0 1,0 2,0 1,0 1,-1 2,-1 -1,1 -1,1 -2,2l0 0 1 1c3,0 2,-1 4,-2 0,1 -1,2 -2,2l0 1c1,0 2,0 3,0 0,0 2,-2 2,-2 2,0 1,0 1,1l-2 1c0,0 0,1 0,1l2 0c1,0 0,0 1,-1 2,-1 1,-1 3,-1 -1,1 -2,1 -3,2 1,1 2,1 3,0l1 0c1,-1 1,-2 2,-2 -1,1 0,2 -2,2l1 1c1,0 1,0 2,0 0,0 0,-1 0,-1 0,1 0,0 0,0l2 -1c1,-1 0,0 1,-1 -1,1 -1,2 -2,2l0 1c2,0 2,0 3,-1 0,0 1,-2 2,-2 0,1 -1,2 -1,2l0 1c2,0 2,0 3,-1 1,-1 1,-2 2,-2 -1,1 -1,1 -2,2 2,0 2,0 3,0l0 -1c1,0 1,-2 2,-2 0,1 -1,2 -1,3 2,0 2,-1 3,-1 0,-1 0,-1 1,-2 0,-1 0,-1 1,-1 -1,1 -1,2 -1,3 2,0 1,-1 3,-2 0,-1 0,-2 1,-2 0,0 0,0 0,1 0,1 -1,1 -1,1l2 0 1 -1c0,-1 0,-2 1,-3 0,0 0,0 0,2 0,0 0,0 0,1l1 0c0,0 1,-1 1,-1l1 -3c0,0 0,-1 0,1 0,0 0,1 0,1l2 0c0,-1 0,-1 0,-1l1 -3c0,0 0,-1 0,1 0,0 0,1 0,1l1 0c1,-1 1,-1 1,-1 1,-2 0,-3 1,-4l0 3 1 0 1 -1c1,-2 0,-3 1,-4l0 3 1 -1c0,0 1,0 1,-1 0,-2 0,-3 0,-4l1 1c0,1 0,1 0,2l0 0c1,-1 1,-1 2,-2 0,-1 -1,-2 0,-3l0 1c0,0 0,1 0,1l1 0 1 -1c0,-1 0,-1 0,-2 0,-1 -1,-1 0,-2 1,1 -1,2 1,2l1 0c0,-4 -1,-4 -1,-5 1,0 1,1 1,2l1 0c0,0 0,0 1,-1 0,-3 -1,-3 -1,-5 0,1 0,0 0,1l1 2 1 0 0 -1c1,-1 1,-2 0,-3 -1,-1 0,-1 0,-2 0,0 0,1 0,1 1,1 1,2 1,1l1 0c1,-4 -2,-4 -1,-6l1 3 1 0c0,-1 0,-1 0,-3 0,0 0,0 0,0 -1,-2 -2,-2 -2,-3 1,1 2,2 3,2 0,0 0,-1 0,-2l0 0c0,0 0,0 0,-1 -1,-1 -2,-1 -2,-3l0 1c1,1 2,2 3,2 0,-1 0,-2 0,-3 -1,0 0,0 -1,0 -1,-2 -2,-2 -2,-3 1,0 0,0 1,0l2 2 0 0 0 -2 0 -1 -3 -2c0,0 0,-1 0,-1 1,1 2,2 3,2 1,-1 0,-2 0,-3 -1,0 -3,-1 -3,-2 1,0 2,1 3,2 0,-1 0,0 0,-1 0,-1 0,-1 -1,-2 -1,-1 -2,-1 -2,-3 0,1 1,2 3,2l-1 -2 0 -1c-1,0 -1,0 -2,-1 -1,0 -1,0 -1,-1 1,0 2,1 3,1 0,-1 -1,-2 -1,-3 -2,-1 -3,0 -3,-1 1,0 2,1 3,1l0 -2c-1,0 -1,0 -1,-1 -2,-1 -3,-1 -3,-2 1,1 2,1 3,1 0,-1 -1,-1 -1,-2 0,0 0,0 -1,0 -1,-1 -2,-1 -3,-2 1,0 1,0 2,0 1,1 0,1 1,0l0 -1 -1 -1c-1,0 -1,0 -2,0 -1,0 -1,0 -1,-1l2 1 0 -2c0,0 -1,-1 -1,-1 -2,0 -3,0 -3,-1l3 0c-1,-1 -1,-2 -3,-2 -1,0 -2,0 -3,-1l3 0 0 -1c-1,0 -1,-1 -2,-1 -1,0 -2,0 -3,0 0,0 0,0 1,0 1,-1 1,-1 2,0l0 -1c-1,-1 -1,-1 -2,-1 -2,-1 -2,0 -4,-1 0,0 1,0 1,0 0,0 0,0 0,0l2 0 0 -1 0 -1c-5,-1 -4,1 -5,0 0,0 1,-1 2,-1l0 0c0,-1 -1,-1 -1,-1l-4 0c0,0 0,0 1,-1 1,0 1,0 1,0l0 -1c0,0 -1,0 -1,0 -1,0 -2,0 -2,0 -3,1 -2,0 -2,0l2 -1 0 -1c0,0 0,0 -1,0 -1,0 -2,0 -3,0 -2,1 -1,0 -2,0l3 -1 0 -1 0 1c-4,-2 -3,0 -6,0 1,0 2,-1 3,-1l-1 -1 0 0c-3,-1 -4,2 -5,1 0,-1 1,-1 1,-1 1,-1 1,0 1,-1 -1,-1 -1,-1 -3,-1 0,1 0,0 0,1 -2,1 -2,1 -3,1 0,0 0,0 0,0l1 0c1,-1 1,-1 1,-2l0 0 -2 -1 -2 2c0,0 0,0 -1,0 -1,1 0,0 -1,0 1,0 1,0 2,-1 0,0 0,0 1,0 0,-1 0,0 0,-1l-3 0 -1 1c-1,1 -1,1 -2,1 1,0 2,-2 2,-3l0 0c-2,0 -2,0 -3,1 -2,2 -1,2 -3,2l1 -1c1,0 1,-1 1,-2 0,0 -2,0 -2,0z"/>
     <path class="fil4" d="M16 53c-1,-27 29,-44 52,-30 2,1 4,2 5,3 7,6 11,13 12,23 1,11 -4,19 -9,24 -5,6 -15,11 -23,11 -5,1 -10,0 -15,-2 -12,-5 -21,-16 -22,-29zm0 -5c-1,6 0,10 2,15 5,13 17,21 31,22 13,1 28,-7 33,-19 1,-2 2,-4 3,-7 0,-2 0,-5 1,-7 -1,-11 -4,-19 -10,-25 -10,-10 -25,-13 -38,-8 -8,3 -15,9 -18,16 -4,7 -4,11 -4,13l0 0z"/>
     <path class="fil5" d="M37 45l0 9c3,1 3,1 5,2 3,2 2,1 3,1 1,0 1,0 1,0l0 0c2,1 0,1 3,1l0 1 2 1c0,-1 0,-1 0,-1 0,0 0,0 1,1 1,0 1,0 2,-1l-2 -1c1,-1 1,2 4,0 -1,-1 -2,-1 -3,-3 1,1 2,2 4,2 1,0 1,-1 1,-2 0,0 0,0 -1,-1 0,0 -1,0 -1,0 0,0 0,0 0,-1 -1,0 -1,0 -1,0 -1,-1 -1,-1 -1,-1 -1,0 -2,-1 -2,-1 -1,-1 -1,-1 -2,-1 -3,1 -2,6 -5,4 -1,-1 0,-1 0,-2 1,-4 -1,-1 2,-6 1,-1 2,-2 4,-1 1,0 2,1 4,1 -1,-3 -2,-2 -5,-2 -1,0 -3,1 -4,1 -2,0 -3,2 -4,2 -2,-1 -3,-2 -5,-2l0 0z"/>
     <path class="fil6" d="M37 45c2,0 3,1 5,2 1,0 2,-2 4,-2 1,0 3,-1 4,-1 3,0 4,-1 5,2 -2,0 -3,-1 -4,-1 -2,-1 -3,0 -4,1 -3,5 -1,2 -2,6 0,1 -1,1 0,2 3,2 2,-3 5,-4 1,0 1,0 2,1l0 0c1,0 1,0 1,0 1,1 2,2 4,1 1,-2 -1,-4 -2,-5 1,0 2,1 2,2 1,2 0,3 -1,4l0 0c1,1 1,1 2,1 1,1 0,0 1,1 2,-2 1,-2 6,-2l0 -9c-12,2 -9,2 -11,0 -1,-1 -1,0 -2,0 -6,-1 -9,2 -10,2 -1,0 -4,-1 -5,-1 0,0 0,0 0,0l0 0z"/>
     <path class="fil7" d="M14 33c0,0 0,0 1,0 1,0 1,1 1,1 0,0 0,0 -1,0l-1 -1zm-1 0c-1,-1 -1,-1 -2,-1 1,0 1,-1 2,0 0,0 0,0 0,1l0 0zm1 -2c0,-2 -4,-3 -5,2 2,1 6,3 7,4 1,-1 2,-3 2,-4 -1,-1 -2,-2 -4,-2l0 0zm15 -13c0,0 0,0 0,-1 1,0 0,0 1,1 0,0 1,2 1,2 1,0 1,0 2,-1 0,-1 -4,-6 -4,-7l-2 1c0,1 1,2 1,3 -1,0 -1,-1 -2,-2 0,0 0,0 -1,1 0,1 4,6 4,6l2 0c0,-1 -1,-2 -2,-3l0 0z"/>
     <path class="fil8" d="M41 8c0,2 1,2 0,3 -1,-1 -1,-2 -1,-3l-1 0 -1 1 2 7 2 0c0,-1 0,-1 -1,-2 0,-1 0,-1 1,-1l0 3 2 0 -1 -8 -2 0 0 0z"/>
     <path class="fil7" d="M26 22c-1,0 -3,-3 -4,-4 1,0 1,0 2,1 1,1 2,2 2,3zm-6 -4c1,1 4,6 5,7 1,-1 3,-2 3,-3 0,-1 -1,-2 -1,-3 -1,0 -2,-1 -2,-2 -1,0 -2,-1 -3,0 0,0 -1,1 -2,1l0 0zm-7 21l3 0 0 -1c-1,-1 -7,-3 -8,-3l0 1 3 1 -3 0 -1 2c1,0 7,2 8,2l0 -1 -2 -1c0,0 0,0 0,0l0 0z"/>
     <path class="fil8" d="M7 46c0,0 -1,0 1,0 0,0 4,0 4,1 0,0 -4,0 -5,0 0,-1 0,-1 0,-1zm6 3c1,-1 1,-2 1,-4 -1,0 -6,-1 -8,-1 0,1 -1,3 -1,4l8 1z"/>
     <path class="fil7" d="M78 25c0,-1 1,-1 2,-2 1,0 1,-1 2,-2 0,2 -3,4 -4,4zm-2 0c0,0 2,2 3,2 1,0 2,-1 3,-2 1,-1 4,-3 0,-6 -1,1 -6,5 -6,6l0 0z"/>
     <path class="fil8" d="M92 45c1,-1 1,-1 3,-2l-1 -1c0,0 -6,1 -8,1l1 2c1,0 1,-1 2,-1 0,0 0,0 0,0l-2 2 0 1 8 -1 0 -2 -3 1 0 0z"/>
     <path class="fil7" d="M22 26c-1,0 -1,0 -2,-1l2 1 1 0c1,0 1,0 1,-1 -1,-1 -2,-1 -3,-2 0,-1 -1,-1 -1,-2 -1,0 -1,-1 -2,-1l-1 1 3 2c-1,0 -2,-1 -4,-1 0,0 0,0 0,1 0,0 5,5 6,5l1 -1 -1 -1 0 0zm13 -10c0,1 0,0 0,1l0 -1c-1,0 -2,-4 -3,-5l-2 0c1,2 2,3 2,5 1,1 1,3 4,2 2,-1 1,-2 0,-4 0,-2 -1,-3 -2,-4l-1 0c0,2 2,5 2,6l0 0zm35 3c0,-1 2,-5 3,-6l-2 -1c0,1 -2,3 -2,4 -1,1 -2,3 0,4 2,1 3,-1 4,-2 0,-1 2,-3 2,-4l-2 -1c0,1 -1,2 -1,3 -1,1 -1,1 -1,2 -1,1 -1,1 -1,1l0 0zm8 -3l-1 -1 -5 7c0,0 0,0 1,0 1,0 1,-1 2,-2l-1 3 1 1c1,0 4,-6 5,-6 -1,-1 -1,-1 -2,-1 0,1 -1,2 -1,2l1 -3 0 0z"/>
     <path class="fil8" d="M87 40c1,-1 4,-2 5,-2 0,1 -3,2 -4,2 -1,0 -1,0 -1,0zm6 0c1,-1 1,-2 0,-3 -1,-1 -7,1 -7,2 -1,1 0,3 3,3 1,-1 4,-1 4,-2zm-28 -23c0,-2 1,-3 1,-5 0,0 0,0 1,0 0,-1 0,0 0,-1 0,1 -1,3 -1,5 -1,1 0,0 -1,1l0 0zm4 -4c1,-3 -2,-4 -4,-3 0,1 -1,4 -2,5 0,2 2,4 3,3 1,-1 2,-4 3,-5l0 0z"/>
     <path class="fil7" d="M18 29c-1,0 -1,0 -2,-1 0,0 0,0 0,-1 0,1 1,1 2,2zm0 3c1,0 1,0 2,-1 -1,-1 -3,-2 0,-1l1 -1c0,-1 -6,-4 -7,-4 0,0 -1,1 -1,2 1,2 4,4 5,5zm65 -4c0,0 0,0 1,-1 0,0 0,0 1,0 -1,0 -1,1 -2,1l0 0zm-3 1c0,0 0,0 0,1 1,-1 3,-2 1,0l0 1 1 1c0,0 -1,0 0,0l6 -6 -2 -2c-1,0 -6,3 -7,4 0,1 0,1 1,1l0 0zm-25 -18c0,-1 0,-2 0,-2 1,0 1,1 0,2zm0 1c1,0 3,1 2,-4 -1,-1 -2,-1 -4,-1l0 8 1 0 1 -3 0 0z"/>
     <path class="fil9" d="M25 49c-4,1 -1,6 2,5 4,-1 2,-6 -2,-5z"/>
     <path class="fil6" d="M38 35c1,2 1,2 2,3 1,-3 0,-10 -1,-13 0,3 -1,10 -1,10l0 0z"/>
     <path class="fil2" d="M60 78l0 0c-2,-3 -6,-8 -9,-8 0,4 0,3 6,6 1,1 2,2 3,2l0 0z"/>
     <path class="fil10" d="M61 77c1,-9 5,-8 0,-12 -2,2 -1,10 0,12z"/>
     <path class="fil8" d="M47 9c1,0 0,0 1,0l0 -2 -3 0c-1,2 0,6 0,8l3 0 0 -1 -1 -1 0 -1 1 0 0 -2c-1,0 -1,1 -1,0l0 -1 0 0 0 0z"/>
     <path class="fil2" d="M41 25l-1 0c2,3 6,7 9,8 0,-6 -2,-3 -8,-8zm0 53l0 0c1,-1 4,-3 5,-3 3,-2 2,-1 3,-5 -3,0 -8,6 -8,8l0 0z"/>
     <path class="fil6" d="M37 67c0,2 1,4 1,5 1,2 1,3 1,5 1,-2 2,-9 1,-12 0,0 0,0 0,0 -1,1 -2,2 -3,2l0 0zm25 -4c1,0 3,2 3,2 1,1 6,-2 10,-3 -5,0 -8,-1 -13,1zm-23 0c-5,-1 -7,-2 -13,-1l7 2c3,1 2,2 4,0l2 -1 0 0z"/>
     <path class="fil11" d="M26 41c2,0 4,0 7,0 3,0 3,-1 6,-2 -1,0 -3,-1 -3,-2 -1,0 -3,1 -3,1 -2,1 -5,2 -7,3l0 0z"/>
     <path class="fil2" d="M59 26l0 -1 -1 0c0,0 -6,4 -6,4l-1 3c3,0 7,-5 8,-6l0 0z"/>
     <path class="fil6" d="M61 38c2,2 7,3 11,3l-1 -1 0 0c-1,0 -1,0 -2,-1 -1,0 -2,-1 -3,-1 -1,0 -2,-1 -3,-1 -1,0 -2,1 -2,1l0 0z"/>
     <path class="fil10" d="M59 37c1,-1 3,-2 3,-3l-1 -9c0,1 -1,4 -1,5 -1,3 -1,4 -1,7z"/>
     <path class="fil7" d="M62 14c0,-1 1,0 1,-1 0,-2 0,0 -1,-1 -1,-2 1,-2 1,-2 1,0 0,1 1,0 0,0 0,-1 0,-1l-3 -1c0,2 -2,6 -2,8l2 0 1 -2 0 0z"/>
     <path class="fil6" d="M33 31c-3,1 -1,6 2,5 3,-1 0,-6 -2,-5z"/>
     <path class="fil1" d="M33 67c-4,1 -2,6 1,4 3,-1 2,-6 -1,-4z"/>
     <path class="fil6" d="M66 67c-1,0 -1,0 -1,1 0,3 2,4 4,3 3,-1 0,-6 -3,-4z"/>
     <path class="fil7" d="M91 31c-1,-1 -2,-3 -3,-3 0,0 0,0 -1,0l1 2c-2,0 -5,2 -6,3l1 1c2,-1 4,-2 5,-3 2,1 1,1 3,0l0 0z"/>
     <path class="fil2" d="M49 22c-2,1 -1,7 2,6 2,-1 1,-6 -2,-6z"/>
     <path class="fil6" d="M66 31c-3,1 -2,6 1,5 3,-2 2,-6 -1,-5z"/>
     <path class="fil2" d="M34 50c-1,-3 -6,-6 -8,-8l3 5c2,3 1,3 5,3l0 0zm33 0c4,0 3,0 4,-2l2 -4c1,-1 1,-1 2,-2 -2,1 -7,5 -8,8l0 0zm7 10l0 0c0,0 -3,-7 -3,-7l-4 -1c1,3 2,3 3,5 1,0 3,2 4,3l0 0zm-25 16c-2,1 -1,6 2,4 2,-1 1,-6 -2,-4z"/>
     <path class="fil9" d="M27 59c0,1 -1,1 1,0 1,-1 5,-3 5,-7 -5,1 -2,1 -6,7l0 0z"/>
     <path class="fil12" d="M49 15l3 0 0 -1c0,-1 0,0 -1,-1 0,0 0,1 0,0 0,0 0,0 0,0l0 -6 -2 0 0 8z"/>
     <path class="fil2" d="M73 49c-3,2 -1,5 2,4 3,-1 1,-5 -2,-4z"/>
     <path class="fil7" d="M85 37c1,0 6,-3 7,-3l-1 -2c-1,1 -6,3 -7,4l1 1z"/>
     <path class="fil13" d="M78 78c1,0 1,0 0,0 -1,1 -1,2 -1,3 1,1 1,1 2,0 -1,1 -2,2 -4,2 1,-1 2,-1 1,-3l-1 0c0,0 0,0 0,0 -1,1 -1,1 -1,1 1,0 2,-1 1,1 0,1 -1,1 -2,1 0,1 1,1 1,1l-1 0 0 1 2 0c1,-1 3,-1 3,-2 1,-1 2,-3 2,-5 -1,1 -1,2 -2,2 0,0 0,-1 0,-1 1,-1 0,-1 1,0 0,-1 0,-1 0,-2l-1 1 0 0z"/>
     <path class="fil8" d="M7 42l7 2 0 -1c0,-1 -7,-2 -7,-2l-1 1c0,0 1,0 1,0l0 0z"/>
     <path class="fil14" d="M44 60c0,1 0,0 1,1 1,0 1,1 2,1 1,0 0,0 1,0 1,0 0,0 1,0 1,0 1,0 2,-1l0 -1 0 0 -2 -1 0 1c0,0 0,0 0,0 -1,0 -1,-1 -2,0 0,1 0,1 1,1 -1,1 -2,0 -2,-1 0,0 0,0 0,0l1 -1c1,0 0,0 1,0l1 -1c-3,0 -1,0 -3,-1l1 1c-1,1 0,-1 -2,0 0,1 0,1 0,1l1 1c0,0 0,0 0,0l-2 0c0,0 0,0 0,0l0 0z"/>
     <path class="fil15" d="M71 81l1 0 0 1 2 -1c-1,1 -1,1 -2,1l0 2c0,0 0,0 0,0 0,0 1,1 1,1 0,0 0,0 0,0 1,0 0,0 1,0l1 0 -2 0 0 -1 0 0 1 0c0,0 -1,0 -1,-1 1,0 2,0 2,-1 1,-2 0,-1 -1,-1 0,0 0,0 1,-1 0,0 0,0 0,0 -2,0 -4,0 -4,1l0 0z"/>
     <path class="fil16" d="M52 60c-1,0 -1,-1 -1,0 1,0 0,0 1,0l-1 0 0 1c1,0 1,-1 2,-1 1,0 3,-1 4,-2 0,-1 0,0 1,-1 1,-1 0,-1 1,-2 -1,-1 0,0 -1,-1 -1,0 -1,0 -2,-1 0,1 0,1 0,1 0,0 1,0 1,0 1,1 1,1 1,1 0,1 0,2 -1,2 -2,0 -3,-1 -4,-2 1,2 2,2 3,3 -3,2 -3,-1 -4,0l2 1c-1,1 -1,1 -2,1l0 0z"/>
     <path class="fil17" d="M71 83c0,1 -1,1 1,1 0,-1 0,0 0,0l0 -2c1,0 1,0 2,-1l-2 1c-1,0 1,0 -1,0 0,0 0,0 1,0l-1 -1c0,-1 2,-1 4,-1 0,-1 1,-1 1,-1 0,0 0,0 0,0 1,-1 1,0 1,0 -1,0 -1,0 -1,0 0,-1 0,-1 0,-1 -1,1 -3,1 -4,2 -1,0 -3,2 -2,3 0,0 0,0 0,0l1 0c0,1 0,0 0,0l0 0z"/>
     <path class="fil18" d="M43 60c1,0 0,-1 0,-2 2,0 0,0 2,-1 0,0 1,0 1,0 0,0 0,0 -1,0 -1,0 0,1 -3,-1 -2,-1 -2,-1 -5,-2 1,2 3,0 4,3 0,1 1,2 2,1l0 2 0 0z"/>
     <path class="fil17" d="M69 91l0 0c-2,0 -2,0 -3,0l1 -2c-1,0 -2,0 -3,0 -1,0 -1,0 -2,1l3 1c1,0 0,0 1,0 0,0 -1,0 -1,0l0 0c0,0 0,1 1,1 1,0 2,0 3,-1l0 0z"/>
     <path class="fil13" d="M34 89c-1,0 -1,-1 -1,-2l1 0c0,1 0,2 0,2l0 0zm-2 -2c-1,1 1,3 2,2 1,0 1,0 1,0 1,-1 0,-1 1,-1 1,-1 0,0 1,-1l-1 0 -1 -2c0,0 0,0 0,0l-1 0 0 2 -2 0 0 0z"/>
     <path class="fil17" d="M57 95l0 0c-2,0 -2,-1 -3,-2l0 0c-1,-1 -1,-2 0,-3 1,0 1,0 2,0 -2,0 -3,0 -4,1 0,1 1,2 1,2 0,0 0,1 0,1l0 0c1,1 2,1 4,1l0 0zm-31 -12l-2 0c-1,-1 -1,-2 1,-3 1,1 -1,2 1,2 1,0 0,0 0,0 0,-2 -1,-2 -3,-2 -2,1 1,5 3,3zm59 -7c-1,1 -1,1 -2,0l0 -1c1,0 1,-1 2,1l0 0zm0 0c0,0 0,0 0,0 0,-1 0,-2 0,-2l-1 0c0,0 0,0 -1,1 0,-2 1,-2 1,-3l0 0c0,1 -3,4 -2,5 0,0 0,1 1,1 0,0 1,-1 2,-2z"/>
     <path class="fil13" d="M44 91c0,0 -1,1 -2,0 -1,0 -1,-1 0,-1 0,-2 2,0 2,0l0 0c0,-2 -4,-1 -4,1 0,2 4,2 4,0l0 0z"/>
     <path class="fil17" d="M51 90l0 0c-2,0 -4,2 -2,3 1,1 4,0 2,-2 -1,0 -1,0 -1,0 0,0 0,1 0,1 1,1 0,1 0,1 -1,0 -1,-3 1,-3l0 0z"/>
     <path class="fil19" d="M77 79c0,0 0,-1 -1,0 0,0 0,0 0,0 0,0 -1,0 -1,1l1 0c1,2 0,2 -1,3 2,0 3,-1 4,-2 -1,1 -1,1 -2,0 0,-1 0,-2 1,-3l-1 1 0 0z"/>
     <path class="fil14" d="M52 51c0,0 1,1 2,1 0,0 0,0 1,1 0,0 0,0 1,0l0 0c1,-1 2,-2 1,-4 0,-1 -1,-2 -2,-2 1,1 3,3 2,5 -2,1 -3,0 -4,-1 0,0 0,0 -1,0l0 0z"/>
     <path class="fil20" d="M26 81l1 0c0,0 0,0 1,1l0 0c0,-1 -1,-2 -1,-3 2,0 1,1 2,2 0,0 1,-1 1,-1 -1,0 -2,-1 -4,-1 0,-2 0,-1 -1,-2 0,1 1,3 1,4l0 0z"/>
     <path class="fil13" d="M79 76c0,0 0,0 0,0l1 0c0,0 0,0 0,0l0 0 0 1 0 1 1 2c0,0 0,0 0,0l0 -1c1,0 0,0 1,0l-2 -3 2 -3 -3 3 0 0z"/>
     <path class="fil8" d="M22 78l-1 -1c0,0 0,0 0,0 0,1 0,0 -1,0 0,2 1,0 0,3l1 1 1 -3 0 0z"/>
     <path class="fil21" d="M26 83c0,0 0,1 0,0 0,0 0,-1 0,-1 -2,0 0,-1 -1,-2 -2,1 -2,2 -1,3l2 0z"/>
     <path class="fil7" d="M26 85l1 0 0 1c1,-1 1,-3 1,-4 0,0 0,0 0,0 -1,0 -1,0 -1,1 0,1 -1,2 -1,2z"/>
     <path class="fil13" d="M39 87c-1,0 0,0 -1,0l-1 4 1 0 1 -4 0 0z"/>
     <path class="fil22" d="M43 60l1 0c0,0 0,0 0,0l2 0c0,0 0,0 0,0l-1 -1c0,0 0,0 0,-1 2,-1 1,1 2,0l-1 -1 0 0c0,0 -1,0 -1,0 -2,1 0,1 -2,1 0,1 1,2 0,2l0 0z"/>
     <path class="fil17" d="M18 76c-1,-1 -1,-1 -1,-1 -1,-1 0,-1 -1,-1 0,1 1,4 3,5 -1,-1 -1,-3 -1,-3z"/>
     <path class="fil7" d="M46 89c-1,0 -1,-1 -1,1 0,1 0,2 0,3l1 0 0 -4z"/>
     <path class="fil23" d="M49 59l0 -1 -1 1c-1,0 0,0 -1,0l-1 1c0,0 0,0 0,0 0,1 1,2 2,1 -1,0 -1,0 -1,-1 1,-1 1,0 2,0 0,0 0,0 0,0l0 -1 0 0z"/>
     <path class="fil7" d="M84 71l0 1 0 0c1,0 1,1 1,1l1 1c0,0 0,0 0,0 0,0 0,0 0,0 0,0 0,0 0,0l1 -1 -1 -2c-1,0 -1,-1 -1,0 0,0 0,0 0,0l0 0c0,0 0,0 -1,0l0 0zm-27 21l0 0 1 0 0 -4 -1 1 0 3z"/>
     <path class="fil15" d="M78 78l1 -1c0,1 0,1 0,2 -1,-1 0,-1 -1,0 0,0 0,1 0,1 1,0 1,-1 2,-2l0 -1 -1 0 -1 1 0 0z"/>
     <path class="fil13" d="M64 89c1,0 2,-1 2,-3 -1,0 -2,0 -3,1 3,0 2,1 1,2l0 0zm-46 -13c0,0 0,0 0,0 0,1 1,1 2,1 0,0 0,0 0,-1l0 -1c0,-1 -1,-1 -2,-2 0,1 1,2 1,3l-1 0 0 0z"/>
     <path class="fil24" d="M20 75l0 1c0,0 0,0 0,0 0,0 0,0 0,0 1,0 1,0 1,1 0,0 0,0 0,0l1 1c1,0 0,0 1,0 0,0 1,1 1,1 0,-1 0,-1 -1,-1l-3 -3c0,0 0,0 0,0 0,0 0,0 0,0l0 0z"/>
     <path class="fil25" d="M87 40c0,0 0,0 1,0 1,0 4,-1 4,-2 -1,0 -4,1 -5,2z"/>
     <path class="fil8" d="M72 87l0 -1c1,0 0,0 1,0l0 -1c0,0 0,0 0,0 0,0 -1,-1 -1,-1 0,0 0,0 0,0 0,0 0,-1 0,0 -2,0 -1,0 -1,-1 0,0 0,0 0,0l0 0c0,1 0,2 0,2 1,1 1,1 1,2l0 0z"/>
     <path class="fil26" d="M65 17c1,-1 0,0 1,-1 0,-2 1,-4 1,-5 0,1 0,0 0,1 -1,0 -1,0 -1,0 0,2 -1,3 -1,5l0 0z"/>
     <path class="fil27" d="M1 56c0,-1 -1,-1 0,-2l0 0c0,0 1,0 1,1 1,0 1,0 1,1l0 -1 -2 -2 0 0c0,0 0,0 -1,0l1 0c-1,1 -1,1 -1,2 0,1 1,1 1,1l0 0z"/>
     <path class="fil25" d="M78 25c1,0 4,-2 4,-4 -1,1 -1,2 -2,2 -1,1 -2,1 -2,2z"/>
     <path class="fil28" d="M2 39c0,0 0,0 0,0l2 3c0,-2 0,-1 -1,-3 -1,-1 -1,-2 0,-3 -1,0 -1,-1 -1,0 0,1 0,1 0,1 0,1 0,1 0,1l0 1 0 0z"/>
     <path class="fil26" d="M7 46c0,0 0,0 0,1 1,0 5,0 5,0 0,-1 -4,-1 -4,-1 -2,0 -1,0 -1,0z"/>
     <path class="fil25" d="M26 22c0,-1 -1,-2 -2,-3 -1,-1 -1,-1 -2,-1 1,1 3,4 4,4z"/>
     <path class="fil29" d="M98 69c0,0 0,1 0,-1l0 -1c0,-1 0,-1 1,-1l-1 0 -1 -3c-1,2 2,2 1,6z"/>
     <path class="fil27" d="M5 29c2,-1 1,-1 2,2 0,0 0,0 0,0 1,-2 -1,-2 0,-5 -1,0 -1,1 -1,2 -1,0 0,0 -1,1l0 0z"/>
     <path class="fil28" d="M3 35l0 0c1,2 1,2 2,3 0,0 0,0 0,-1 -1,-2 -2,-2 -2,-4 0,1 0,1 0,2 -1,0 0,0 0,0l0 0z"/>
     <path class="fil29" d="M73 6c-1,-1 -1,-1 -3,-1 0,-1 0,-1 -1,-1l1 1c-1,0 -2,1 -3,1 3,0 2,-2 6,0l0 0z"/>
     <path class="fil27" d="M4 32l0 0c1,1 1,2 2,3 1,-2 -1,-2 -1,-5 0,0 0,-1 -1,0 0,1 1,1 1,1l-1 1 0 0zm5 -10l1 0c0,1 0,1 0,2 0,1 0,0 1,1 0,-3 -1,-2 0,-5 -1,0 0,0 -1,1 0,0 0,0 0,1 -2,0 -1,0 -1,0l0 0zm29 -20c1,0 1,0 2,0l-1 3c1,-1 1,-1 1,-1 1,-1 1,-2 1,-2 -1,0 0,-1 -2,-1 0,0 -1,1 -1,1zm-37 57l0 -2c1,1 2,2 3,2 0,-1 0,-1 -1,-1 -1,-1 -1,-1 -2,-1 0,1 0,0 0,1 -1,0 -1,0 0,1 0,0 0,0 0,0z"/>
     <path class="fil30" d="M57 95l0 0c3,-1 2,-2 1,-2l-1 -1 0 0 0 1c-1,0 -1,0 -1,1 1,0 1,-1 2,0 0,0 0,0 -1,1z"/>
     <path class="fil31" d="M51 0c0,1 0,2 -1,2l-1 1c2,0 1,0 3,-2 1,-1 1,-1 3,-1 0,0 0,0 -1,0 -1,0 -1,0 -2,1 0,0 -1,-1 -1,-1z"/>
     <path class="fil27" d="M93 79c0,-1 0,0 0,-1l0 0c1,-1 0,-1 1,-2 0,0 0,0 0,0 0,0 0,0 0,0l-1 0c0,-1 0,-2 -1,-2 0,1 1,1 1,5l0 0z"/>
     <path class="fil29" d="M6 73l-1 -1 3 0c0,0 0,0 -1,-1 -1,0 -1,0 -2,0 0,1 0,0 0,1 0,1 0,1 1,1z"/>
     <path class="fil30" d="M48 89c0,0 -1,0 1,0l3 0c1,0 2,0 3,-1l-7 1 0 0z"/>
     <path class="fil27" d="M69 4c-1,-1 -2,-1 -2,-1 -1,-1 0,0 -1,0 0,1 0,0 -1,1 0,0 -1,0 -1,1 1,1 2,-2 5,-1z"/>
     <path class="fil29" d="M96 72c1,0 1,-1 1,-2 1,0 0,0 0,-1 0,1 0,0 -1,-1 0,0 0,-1 0,-1 0,1 -1,1 0,2 1,1 1,2 0,3zm4 -27c0,-1 1,0 1,-2 0,0 0,0 0,0 0,-1 0,-1 -1,-1l1 2c-2,0 -3,-1 -3,-2 0,2 1,2 2,3l0 0z"/>
     <path class="fil30" d="M69 91l0 0c2,-1 2,-3 0,-2 0,0 -1,1 -1,1 1,0 1,0 2,-1 -1,2 -1,1 -1,2l0 0z"/>
     <path class="fil29" d="M26 95c1,0 0,0 1,0 0,0 1,0 1,0 0,1 1,1 2,1 -2,-1 -1,1 -2,-1l3 -1c-1,0 0,-1 -2,0 -1,1 -2,1 -3,1l0 0z"/>
     <path class="fil27" d="M4 70l0 -2 3 1c-1,-1 -1,-1 -2,-1 0,0 -1,0 -1,-1 -1,1 -1,2 0,3zm91 5c0,0 0,1 0,-1 0,0 0,0 0,-1 1,0 1,0 1,0l-1 0 -1 -2c0,-1 0,0 0,-1 0,2 1,2 1,5l0 0zm3 -41c0,-1 0,-2 -1,-3 0,1 1,1 1,2 -1,0 -2,0 -3,-1 0,1 1,1 3,2l0 0z"/>
     <path class="fil29" d="M85 13c-1,0 -1,0 -2,0 0,0 0,-1 0,-1 -1,0 0,0 -1,0l0 0c-1,0 -2,1 -2,1 1,1 0,-1 5,0l0 0zm-78 63l0 -1 3 0c-1,-1 -2,-1 -3,-1 0,1 0,1 0,2 0,0 0,0 0,0z"/>
     <path class="fil32" d="M33 86c0,0 0,0 0,0l-1 1 2 0 0 -2c0,0 1,0 0,0 0,1 0,1 0,1 0,0 -1,0 -1,0l0 0z"/>
     <path class="fil27" d="M7 25c1,0 1,0 1,2 1,0 1,0 1,1 0,0 1,0 0,-2 -1,-1 -1,-1 -1,-2 0,0 0,0 0,0 0,0 0,1 0,1 -2,0 0,0 -1,0l0 0zm-7 25c1,0 1,0 2,1 1,1 0,1 1,1l0 -1c-1,0 -1,-1 -2,-2l-1 1 0 0zm57 50c1,0 0,1 1,1 1,0 1,-1 2,-1 -1,0 -1,0 -3,0 1,-1 1,-1 2,-2 -1,0 -1,1 -2,2l0 0z"/>
     <path class="fil29" d="M91 81c0,0 0,0 0,0 0,-1 0,-1 0,-1 2,-1 1,0 1,-1 -2,0 0,-1 -1,-2 -1,1 0,1 0,2 0,1 0,1 0,2l0 0z"/>
     <path class="fil27" d="M96 31c0,-1 0,-1 0,-2 0,-1 0,0 0,-1l0 1c-1,1 0,1 -1,0 -1,0 -1,0 -2,0 1,1 2,1 3,2l0 0zm-1 -4c0,0 0,0 0,0 0,0 0,-1 0,-1 0,-1 0,0 -1,-1l0 2 -2 -1c0,1 0,1 1,1 1,0 1,0 2,0l0 0z"/>
     <path class="fil21" d="M85 76c-1,-2 -1,-1 -2,-1l0 1c1,1 1,1 2,0l0 0z"/>
     <path class="fil28" d="M0 46c1,0 2,1 3,2l0 1c1,-2 0,-1 -1,-3l-1 0 0 -1c0,0 0,0 0,0 0,1 0,0 -1,1l0 0z"/>
     <path class="fil24" d="M79 76c0,1 0,1 -1,1 0,0 -1,1 -1,1 0,0 0,0 0,1l1 -1c1,0 1,0 0,0l1 -1 1 0 0 -1 0 0c0,0 0,0 0,0l-1 0c0,0 0,0 0,0l0 0z"/>
     <path class="fil33" d="M101 56c0,-1 0,-1 0,-1l0 0 -2 -2c-1,0 0,0 -1,0 0,1 1,1 2,3 1,0 0,0 1,0l0 0z"/>
     <path class="fil29" d="M30 5c0,0 0,0 -1,0 0,0 0,0 0,1l1 -1 -1 3c1,0 1,0 1,-1 0,0 0,-1 0,-2l0 0zm53 84c0,0 0,0 1,-1 0,0 0,0 0,0 1,0 1,0 1,-1l-1 1 0 -3c-1,1 0,2 -1,4z"/>
     <path class="fil33" d="M1 43l0 -1c1,1 2,2 2,3l1 0 0 -1c-1,0 -1,0 -2,-1l-1 -2c0,1 0,1 0,2l0 0z"/>
     <path class="fil27" d="M68 97c0,0 0,1 1,1 0,0 0,0 1,0 0,-1 0,0 0,-1l-2 0c0,0 1,0 1,-1 0,-1 0,-1 0,-1 -1,0 -1,1 -1,2l0 0zm-34 -93c-1,0 0,0 -1,0 -1,0 -1,0 -1,0l1 0 -1 3c1,0 1,0 1,-1 0,-1 1,-1 1,-2l0 0z"/>
     <path class="fil28" d="M74 95c1,-1 1,0 1,-1 2,0 1,0 2,0l-2 0c0,0 0,-1 0,-1 0,-2 0,-1 0,-1l-1 3z"/>
     <polygon class="fil7" points="69,89 69,84 68,85 "/>
     <path class="fil34" d="M83 72l1 -1c1,0 1,0 1,0 -1,-1 -1,0 0,-1 0,0 0,0 0,1 0,0 0,0 0,0 0,-1 0,0 1,0l0 -2c-1,0 -2,2 -3,3l0 0z"/>
     <path class="fil27" d="M99 37c0,0 0,0 0,0 0,-1 0,-1 0,-1 0,-1 0,-1 0,-1l0 2c-1,0 -2,-1 -3,-1 0,1 1,0 3,1l0 0zm-77 -28l1 0 0 3c1,0 1,0 1,-1 0,-1 0,-2 0,-2 0,0 0,0 0,0 0,0 0,0 0,0 0,0 -1,0 -1,0l0 0c-1,0 0,0 -1,0l0 0z"/>
     <path class="fil35" d="M41 8c-1,0 -2,-1 -2,0l1 0c0,1 0,2 1,3 1,-1 0,-1 0,-3z"/>
     <path class="fil36" d="M36 88c0,0 -1,0 1,0 0,-1 0,0 0,-1 0,-1 0,0 0,-1 -1,0 -1,0 -1,0l0 0c0,-1 1,-1 -1,-1l1 2 1 0c-1,1 0,0 -1,1l0 0z"/>
     <path class="fil27" d="M101 52c0,0 0,0 0,0 0,0 0,0 0,-1 0,0 0,0 0,0 -1,0 -2,-1 -3,-2 0,0 0,1 0,1l3 2z"/>
     <path class="fil17" d="M33 86c0,0 1,0 1,0 0,0 0,0 0,-1 1,0 0,0 0,0l1 0c0,0 0,0 -1,0 -1,-1 -1,0 -1,0l0 1 0 0z"/>
     <path class="fil28" d="M33 98c0,0 0,0 2,0 0,0 0,0 0,0l0 1 0 -1c1,0 2,-1 2,-2 -2,1 -1,2 -4,2z"/>
     <path class="fil27" d="M77 93c1,-1 1,0 2,-1 1,0 0,0 0,0l-1 0c0,0 0,-1 0,-1 0,-2 0,-1 0,-1l-1 3 0 0z"/>
     <path class="fil29" d="M11 19l1 0 1 3c1,-1 0,-2 0,-4 0,0 0,0 0,0l-1 1 0 0 0 0c0,0 -1,0 -1,0l0 0zm75 -3c-1,-2 0,-1 -1,-2l0 1 -2 0c0,0 0,0 0,0 0,0 -1,0 -1,0 2,1 2,0 4,1l0 0z"/>
     <path class="fil28" d="M81 11l-2 -2 0 1c0,0 0,0 -1,0 -1,1 -1,1 -1,1l4 0 0 0zm19 49l0 -1 1 0c-1,0 -2,-1 -3,-2l0 -1c0,2 1,2 2,3 0,1 0,1 0,1l0 0z"/>
     <path class="fil33" d="M56 1l0 0 -1 -1c0,1 -1,3 -2,3 1,0 1,0 2,-1l1 -1z"/>
     <path class="fil28" d="M49 0l-1 1c0,-1 0,0 0,0 0,0 -2,2 -2,2 1,0 1,0 1,-1l2 -1c0,0 0,0 0,0l0 -1 0 0z"/>
     <path class="fil27" d="M60 1c-1,0 -1,0 -1,0 0,1 0,0 0,1 -1,0 -1,0 -1,0 -1,1 -1,1 -2,1 1,0 0,1 1,0 1,0 1,0 1,0l2 -2 0 0zm-23 2l0 0c-1,1 -1,1 -1,3 0,-1 0,0 1,-2 0,0 0,-1 0,-1l0 0z"/>
     <path class="fil29" d="M11 82l0 -1c1,0 1,0 2,0 1,0 0,0 1,0 -1,-1 -2,0 -3,-1 0,1 -1,2 0,2l0 0zm5 5l0 0 3 -1c-1,0 0,0 -2,0 -1,0 -1,0 -2,0 0,0 0,0 0,0l1 0 0 0c0,1 0,0 0,1l0 0 0 0z"/>
     <path class="fil27" d="M63 2l-1 0 0 0c0,1 0,1 -1,2l-1 0c0,0 0,0 0,0 1,0 1,0 3,-1 0,-1 0,0 0,-1l0 0zm-54 77l0 -1 3 0c-1,0 0,0 -2,0 -1,-1 -1,-1 -2,-1 1,1 0,1 1,2l0 0zm5 6l0 -1 2 0c-1,-1 -2,-1 -3,-1l1 2 0 0z"/>
     <path class="fil37" d="M80 91c1,-1 1,-1 1,-1 1,0 1,0 1,0l-1 0 0 -3c-1,1 0,2 -1,4l0 0z"/>
     <path class="fil27" d="M101 48c0,0 0,1 0,-1 0,1 0,0 0,1 -1,-1 -2,-2 -3,-2 0,1 2,2 3,2zm-71 48c1,1 0,0 1,1l1 0 0 0c1,-1 1,-1 2,-2 -1,0 -1,1 -2,1 -1,0 -1,0 -2,0l0 0zm60 -75c0,0 1,-1 1,-1 -1,-1 0,0 -1,-1l0 1 -3 0c1,1 2,1 3,1l0 0z"/>
     <path class="fil28" d="M99 63c0,0 0,0 0,0 0,0 1,0 1,0 0,0 0,0 0,-1 -1,0 -2,-1 -3,-2 0,1 1,1 2,3 0,0 0,0 0,0zm-79 28c0,0 0,0 1,0 0,0 0,0 0,0l1 1 0 -1c1,0 2,0 2,-1 -2,0 -2,1 -4,1l0 0z"/>
     <path class="fil27" d="M14 17l1 -1 0 3c1,-1 0,-2 0,-3 0,0 0,0 0,0l-1 1 0 0zm6 -6l0 0c0,2 0,3 0,3l1 -3 -1 0z"/>
     <path class="fil19" d="M34 89c0,0 0,-1 0,-2l-1 0c0,1 0,2 1,2l0 0z"/>
     <path class="fil27" d="M2 65c1,0 3,0 3,1 0,-1 0,-1 -1,-1 -1,-1 -1,-1 -2,-1 1,1 1,0 0,1z"/>
     <path class="fil28" d="M78 9c-1,-1 -1,0 -2,-1 0,0 0,0 0,-1l0 1 -2 1c0,0 -1,1 2,0 0,0 1,0 2,0z"/>
     <path class="fil29" d="M75 7c-1,0 -1,0 -1,-1 0,0 0,0 -1,0l0 -1 0 1 -3 1c1,0 0,1 2,0 1,0 2,0 3,0l0 0z"/>
     <path class="fil28" d="M23 93c0,0 0,0 1,0 0,0 0,0 1,0 0,1 0,0 0,1l0 -1 2 -1c0,0 -1,0 -1,1 -1,0 -2,0 -3,0zm-5 -5c0,0 0,0 0,0l0 1 0 0 1 1 0 -1c1,0 2,0 2,-1l-3 0 0 0z"/>
     <path class="fil27" d="M26 7l0 3c1,0 1,-2 1,-3l-1 0z"/>
     <path class="fil29" d="M45 100c1,1 0,1 2,1l-1 -1c2,0 1,-1 2,-2 -1,0 -1,1 -2,2l-1 0z"/>
     <path class="fil27" d="M71 96c1,0 0,0 1,0 1,0 0,0 1,0l-1 0c0,-1 0,-1 0,-1 0,-2 0,-2 0,-2 -1,1 -1,2 -1,3z"/>
     <path class="fil28" d="M1 61c2,0 3,1 4,1 -1,-1 -1,0 -2,-1 0,0 -1,0 -1,-1 0,1 0,0 0,1 0,0 0,0 -1,0l0 0zm40 39l1 0c1,-1 2,-1 3,-2 -2,0 -1,0 -3,1 -1,1 0,1 -1,1l0 0z"/>
     <path class="fil29" d="M88 18l0 0c0,-1 0,-1 0,-1l0 1c-1,-1 -1,-1 -2,0 -1,0 -1,0 -1,0 1,0 2,0 3,0z"/>
     <path class="fil38" d="M42 16l0 0 0 -3c-1,0 -1,0 -1,1 1,1 1,1 1,2z"/>
     <path class="fil27" d="M17 14c0,0 0,1 0,1 0,2 0,1 1,2 0,-1 0,-2 0,-4 0,0 0,0 -1,1l0 0zm21 85c1,0 0,0 1,1 0,0 0,-1 0,-1l2 -1c0,-1 1,-1 -1,-1 0,0 -2,2 -2,2l0 0z"/>
     <path class="fil33" d="M100 41c0,-1 0,0 0,-1 -1,0 -2,-1 -3,-1 0,1 0,1 1,1 1,1 1,1 2,1l0 0z"/>
     <path class="fil27" d="M86 86c0,0 0,-1 1,-1 0,0 0,0 0,0 0,0 0,0 0,0l0 0c0,-1 0,-1 0,-2l-1 -1c0,1 0,2 0,4l0 0zm-41 -85c-1,0 -1,0 -1,0 0,1 -1,2 -2,3 1,0 1,-1 2,-1 0,-1 0,-1 1,-2l0 0z"/>
     <path class="fil33" d="M89 83c0,-1 0,0 1,-1l-1 0c0,0 0,-1 0,-1l0 -1c-1,1 0,2 0,3l0 0z"/>
     <path class="fil37" d="M49 101c0,0 1,0 1,0 0,0 0,0 0,0 0,0 0,0 0,0l0 -1c1,0 1,-1 2,-2 -1,1 0,0 -1,1l-2 1c0,0 0,1 0,0 0,0 0,1 0,1l0 0z"/>
     <path class="fil27" d="M93 24l0 -1 -3 0c0,1 1,1 3,1zm-40 76c0,1 0,1 0,1 0,0 1,0 1,0 0,0 0,0 0,0l0 -1c0,0 1,-1 1,-2 -1,0 -2,2 -2,2l0 0z"/>
     <path class="fil26" d="M80 29l0 2c0,-1 0,-1 0,-1l0 0c1,1 1,1 1,1l0 -1c2,-2 0,-1 -1,0 0,-1 0,-1 0,-1l0 0z"/>
     <path class="fil28" d="M64 99c1,-1 0,0 1,0 0,-1 0,-2 1,-3 -1,0 -1,0 -1,1 -1,1 -1,1 -1,2zm-4 0c1,1 1,1 1,1 0,-1 1,-2 1,-3 -1,0 -1,2 -2,2l0 0z"/>
     <path class="fil39" d="M83 28c1,0 1,-1 2,-1 -1,0 -1,0 -1,0 -1,1 -1,1 -1,1l0 0z"/>
     <path class="fil35" d="M14 33l1 1c1,0 1,0 1,0 0,0 0,-1 -1,-1 -1,0 -1,0 -1,0z"/>
     <path class="fil40" d="M28 59c-2,1 -1,1 -1,0 -1,0 0,0 -1,1 0,0 0,1 -1,1 2,-1 2,-1 3,-2l0 0z"/>
     <path class="fil34" d="M44 88c0,0 0,0 0,0l-3 -1c-2,0 0,0 -1,1l4 0z"/>
     <path class="fil41" d="M55 11c1,-1 1,-2 0,-2 0,0 0,1 0,2z"/>
     <path class="fil39" d="M58 25l1 0 0 1c1,-1 1,-1 1,-2 -1,0 -1,0 -2,1z"/>
     <path class="fil35" d="M13 33c0,-1 0,-1 0,-1 -1,-1 -1,0 -2,0 1,0 1,0 2,1l0 0z"/>
     <path class="fil30" d="M88 72c0,0 0,0 0,-1 1,0 0,0 0,-1 -1,1 0,1 0,2l0 0z"/>
     <path class="fil42" d="M18 29c-1,-1 -2,-1 -2,-2 0,1 0,1 0,1 1,1 1,1 2,1z"/>
     <path class="fil43" d="M60 78l0 0c0,1 1,1 1,1 0,0 0,0 0,0 -1,-2 0,-1 -1,-1z"/>
     <path class="fil30" d="M87 70c0,0 0,0 0,0 1,-1 0,-1 0,-1 0,0 0,0 0,1z"/>
     <path class="fil44" d="M74 60c1,1 0,0 2,1 -1,-1 -1,-1 -1,-1 0,0 0,0 0,0 0,0 0,0 -1,0l0 0zm-34 -35l1 0 -1 -1c-1,-1 -1,0 -1,-1 0,1 0,0 0,1l1 1z"/>
     <path class="fil45" d="M41 78l0 0c-1,0 -1,0 -2,1 1,0 1,0 1,-1 1,0 1,0 1,0l0 0z"/>
     <path class="fil46" d="M51 60l0 0 1 0c-1,0 0,0 -1,0 0,-1 0,0 1,0 -1,-1 -1,-1 -1,-1 0,0 0,0 0,1z"/>
     <path class="fil39" d="M22 26c0,0 0,0 0,0l-2 -1c1,1 1,1 2,1l0 0z"/>
     <path class="fil47" d="M72 82l0 -1 -1 0 1 1c-1,0 -1,0 -1,0 2,0 0,0 1,0l0 0z"/>
     <path class="fil24" d="M72 87l1 -1 0 0c-1,0 0,0 -1,0l0 1 0 0z"/>
     <path class="fil34" d="M82 73c0,0 0,0 0,0 1,0 1,0 1,0 0,-1 0,-1 0,-1 0,0 0,0 0,0 0,0 0,0 0,0 -1,1 -1,1 -1,1z"/>
     <path class="fil48" d="M61 87c1,0 2,0 2,-1 0,0 -1,1 -1,1 -1,0 0,0 -1,0z"/>
     <path class="fil30" d="M66 88c1,-1 1,-1 1,-2 0,1 -1,1 -1,2z"/>
     <path class="fil34" d="M25 80c0,-1 0,0 0,-1 0,0 -1,0 -1,0 0,0 0,0 0,0 1,1 1,1 1,1z"/>
     <path class="fil48" d="M65 86c1,0 1,0 2,-1 -1,0 -1,0 -2,1z"/>
     <path class="fil49" d="M51 90c1,0 1,0 1,0 0,0 0,0 0,0 -2,0 0,0 -1,0l0 0z"/>
     <path class="fil48" d="M17 72c0,1 0,1 1,1 0,0 0,0 0,-1 -1,0 0,0 -1,0l0 0z"/>
     <path class="fil34" d="M26 81c0,-1 0,-1 0,-1 0,0 0,0 -1,0 1,0 0,0 1,0 0,0 0,0 0,1z"/>
     <path class="fil47" d="M26 85c0,0 0,0 0,1 0,0 0,0 0,0 1,0 1,0 1,0l0 -1 -1 0 0 0z"/>
     <path class="fil44" d="M29 18l0 0 1 0c-1,-1 0,-1 -1,-1 0,1 0,1 0,1l0 0z"/>
     <path class="fil34" d="M37 86c-1,0 0,0 -1,0l0 0c0,0 0,0 1,0z"/>
     <path class="fil40" d="M35 16l0 1c0,-1 0,0 0,-1l0 1 0 -1 0 0z"/>
     <polygon class="fil50" points="4,45 3,45 3,45 "/>
     <path class="fil51" d="M85 71l0 0c0,-1 0,-1 0,-1 -1,1 -1,0 0,1z"/>
     <path class="fil52" d="M17 88l-1 -1 0 0c0,1 0,1 1,1l0 0z"/>
     <path class="fil48" d="M17 72l0 -1c0,2 0,1 0,1z"/>
     <polygon class="fil53" points="101,53 101,52 "/>
    </g>
   </g>
  </g>
 </g>
</svg>
