<?xml version="1.0" encoding="UTF-8"?>
<!DOCTYPE svg PUBLIC "-//W3C//DTD SVG 1.1//EN" "http://www.w3.org/Graphics/SVG/1.1/DTD/svg11.dtd">
<!-- Creator: CorelDRAW X8 -->
<svg xmlns="http://www.w3.org/2000/svg" xml:space="preserve" width="134px" height="100px" version="1.1" style="shape-rendering:geometricPrecision; text-rendering:geometricPrecision; image-rendering:optimizeQuality; fill-rule:evenodd; clip-rule:evenodd"
viewBox="0 0 59 44"
 xmlns:xlink="http://www.w3.org/1999/xlink">
 <defs>
  <style type="text/css">
   <![CDATA[
    .fil2 {fill:none}
    .fil0 {fill:#FEFEFE}
    .fil4 {fill:#4261AB}
    .fil3 {fill:#025905}
    .fil1 {fill:#F44B0A}
   ]]>
  </style>
     <clipPath id="id0">
      <path d="M10 38c0,0 -1,0 -1,0 0,3 13,5 19,-2 0,0 0,0 0,0 -2,1 -4,2 -6,2 -3,1 -6,1 -9,1 -1,0 -2,-1 -3,-1z"/>
     </clipPath>
     <clipPath id="id1">
      <path d="M27 35c-3,1 -6,2 -9,1 -3,0 -6,-1 -9,-2 -2,-1 -4,-1 -6,-2 0,4 15,11 24,3 0,0 0,0 0,0z"/>
     </clipPath>
     <clipPath id="id2">
      <path d="M4 26c-1,-1 -3,-2 -4,-3 -2,5 14,18 27,11 0,0 0,0 0,0 -7,2 -14,0 -20,-5 -1,-1 -2,-2 -3,-3z"/>
     </clipPath>
     <clipPath id="id3">
      <path d="M5 20c-2,-1 -3,-3 -4,-4 -3,4 10,22 25,18 0,0 0,0 0,-1 -3,1 -7,0 -10,-2 -4,-1 -7,-4 -9,-7 -1,-1 -2,-2 -2,-4z"/>
     </clipPath>
     <clipPath id="id4">
      <path d="M9 18c-3,-3 -5,-7 -6,-9 -4,4 6,25 23,24 0,0 0,0 0,0 -7,-1 -13,-7 -17,-14 0,0 0,-1 0,-1z"/>
     </clipPath>
     <clipPath id="id5">
      <path d="M12 14c-2,-4 -3,-7 -3,-10 -5,3 0,26 17,28 0,0 0,0 0,0 -3,-1 -5,-3 -8,-5 -2,-3 -4,-7 -5,-11 -1,-1 -1,-2 -1,-2z"/>
     </clipPath>
     <clipPath id="id6">
      <path d="M27 30c-8,-6 -12,-21 -12,-30 -6,2 -5,26 11,32 0,-1 1,-1 1,-2z"/>
     </clipPath>
     <clipPath id="id7">
      <path d="M48 38c1,0 1,0 2,0 -1,3 -13,5 -19,-2 0,0 0,0 0,0 2,1 3,2 6,2 2,1 6,1 9,1 0,0 1,-1 2,-1z"/>
     </clipPath>
     <clipPath id="id8">
      <path d="M32 35c2,1 5,2 8,1 3,0 7,-1 9,-2 3,-1 5,-1 6,-2 1,4 -14,11 -24,3 0,0 1,0 1,0z"/>
     </clipPath>
     <clipPath id="id9">
      <path d="M54 26c2,-1 3,-2 4,-3 2,5 -13,18 -26,11 0,0 0,0 0,0 7,2 14,0 19,-5 1,-1 3,-2 3,-3z"/>
     </clipPath>
     <clipPath id="id10">
      <path d="M54 20c1,-1 3,-3 4,-4 3,4 -10,22 -26,18 0,0 0,0 0,-1 4,1 7,0 11,-2 3,-1 6,-4 9,-7 0,-1 1,-2 2,-4z"/>
     </clipPath>
     <clipPath id="id11">
      <path d="M50 18c2,-3 4,-7 5,-9 5,4 -6,25 -23,24 0,0 0,0 0,0 8,-1 14,-7 17,-14 1,0 1,-1 1,-1z"/>
     </clipPath>
     <clipPath id="id12">
      <path d="M47 14c1,-4 2,-7 3,-10 5,3 -1,26 -18,28 0,0 0,0 0,0 3,-1 6,-3 8,-5 3,-3 5,-7 6,-11 0,-1 0,-2 1,-2z"/>
     </clipPath>
     <clipPath id="id13">
      <path d="M32 30c8,-6 12,-21 12,-30 5,2 4,26 -12,32 0,-1 0,-1 0,-2z"/>
     </clipPath>
 </defs>
 <g id="Layer_x0020_1">
  <metadata id="CorelCorpID_0Corel-Layer"/>
  <g id="_813371344">
   <g>
    <path class="fil0" d="M10 38c0,0 -1,0 -1,0 0,3 13,5 19,-2 0,0 0,0 0,0 -2,1 -4,2 -6,2 -3,1 -6,1 -9,1 -1,0 -2,-1 -3,-1z"/>
    <g style="clip-path:url(#id0)">
     <g>
      <g>
       <rect class="fil1" x="-14" y="-6" width="85.3293" height="20.2947"/>
       <rect class="fil2" x="-14" y="14" width="85.3293" height="20.2947"/>
       <rect class="fil3" x="-14" y="34" width="85.3293" height="20.2947"/>
      </g>
     </g>
    </g>
    <path class="fil2" d="M10 38c0,0 -1,0 -1,0 0,3 13,5 19,-2 0,0 0,0 0,0 -2,1 -4,2 -6,2 -3,1 -6,1 -9,1 -1,0 -2,-1 -3,-1z"/>
    <path class="fil0" d="M27 35c-3,1 -6,2 -9,1 -3,0 -6,-1 -9,-2 -2,-1 -4,-1 -6,-2 0,4 15,11 24,3 0,0 0,0 0,0z"/>
    <g style="clip-path:url(#id1)">
     <g>
      <g>
       <rect class="fil1" x="-14" y="-6" width="85.3293" height="20.2947"/>
       <rect class="fil2" x="-14" y="14" width="85.3293" height="20.2947"/>
       <rect class="fil3" x="-14" y="34" width="85.3293" height="20.2947"/>
      </g>
     </g>
    </g>
    <path class="fil2" d="M27 35c-3,1 -6,2 -9,1 -3,0 -6,-1 -9,-2 -2,-1 -4,-1 -6,-2 0,4 15,11 24,3 0,0 0,0 0,0z"/>
    <path class="fil0" d="M4 26c-1,-1 -3,-2 -4,-3 -2,5 14,18 27,11 0,0 0,0 0,0 -7,2 -14,0 -20,-5 -1,-1 -2,-2 -3,-3z"/>
    <g style="clip-path:url(#id2)">
     <g>
      <g>
       <rect class="fil1" x="-14" y="-6" width="85.3293" height="20.2947"/>
       <rect class="fil2" x="-14" y="14" width="85.3293" height="20.2947"/>
       <rect class="fil3" x="-14" y="34" width="85.3293" height="20.2947"/>
      </g>
     </g>
    </g>
    <path class="fil2" d="M4 26c-1,-1 -3,-2 -4,-3 -2,5 14,18 27,11 0,0 0,0 0,0 -7,2 -14,0 -20,-5 -1,-1 -2,-2 -3,-3z"/>
    <path class="fil0" d="M5 20c-2,-1 -3,-3 -4,-4 -3,4 10,22 25,18 0,0 0,0 0,-1 -3,1 -7,0 -10,-2 -4,-1 -7,-4 -9,-7 -1,-1 -2,-2 -2,-4z"/>
    <g style="clip-path:url(#id3)">
     <g>
      <g>
       <rect class="fil1" x="-14" y="-6" width="85.3293" height="20.2947"/>
       <rect class="fil2" x="-14" y="14" width="85.3293" height="20.2947"/>
       <rect class="fil3" x="-14" y="34" width="85.3293" height="20.2947"/>
      </g>
     </g>
    </g>
    <path class="fil2" d="M5 20c-2,-1 -3,-3 -4,-4 -3,4 10,22 25,18 0,0 0,0 0,-1 -3,1 -7,0 -10,-2 -4,-1 -7,-4 -9,-7 -1,-1 -2,-2 -2,-4z"/>
    <path class="fil0" d="M9 18c-3,-3 -5,-7 -6,-9 -4,4 6,25 23,24 0,0 0,0 0,0 -7,-1 -13,-7 -17,-14 0,0 0,-1 0,-1z"/>
    <g style="clip-path:url(#id4)">
     <g>
      <g>
       <rect class="fil1" x="-14" y="-6" width="85.3293" height="20.2947"/>
       <rect class="fil2" x="-14" y="14" width="85.3293" height="20.2947"/>
       <rect class="fil3" x="-14" y="34" width="85.3293" height="20.2947"/>
      </g>
     </g>
    </g>
    <path class="fil2" d="M9 18c-3,-3 -5,-7 -6,-9 -4,4 6,25 23,24 0,0 0,0 0,0 -7,-1 -13,-7 -17,-14 0,0 0,-1 0,-1z"/>
    <path class="fil0" d="M12 14c-2,-4 -3,-7 -3,-10 -5,3 0,26 17,28 0,0 0,0 0,0 -3,-1 -5,-3 -8,-5 -2,-3 -4,-7 -5,-11 -1,-1 -1,-2 -1,-2z"/>
    <g style="clip-path:url(#id5)">
     <g>
      <g>
       <rect class="fil1" x="-14" y="-6" width="85.3293" height="20.2947"/>
       <rect class="fil2" x="-14" y="14" width="85.3293" height="20.2947"/>
       <rect class="fil3" x="-14" y="34" width="85.3293" height="20.2947"/>
      </g>
     </g>
    </g>
    <path class="fil2" d="M12 14c-2,-4 -3,-7 -3,-10 -5,3 0,26 17,28 0,0 0,0 0,0 -3,-1 -5,-3 -8,-5 -2,-3 -4,-7 -5,-11 -1,-1 -1,-2 -1,-2z"/>
    <path class="fil0" d="M27 30c-8,-6 -12,-21 -12,-30 -6,2 -5,26 11,32 0,-1 1,-1 1,-2z"/>
    <g style="clip-path:url(#id6)">
     <g>
      <g>
       <rect class="fil1" x="-14" y="-6" width="85.3293" height="20.2947"/>
       <rect class="fil2" x="-14" y="14" width="85.3293" height="20.2947"/>
       <rect class="fil3" x="-14" y="34" width="85.3293" height="20.2947"/>
      </g>
     </g>
    </g>
    <path class="fil2" d="M27 30c-8,-6 -12,-21 -12,-30 -6,2 -5,26 11,32 0,-1 1,-1 1,-2z"/>
    <path class="fil0" d="M48 38c1,0 1,0 2,0 -1,3 -13,5 -19,-2 0,0 0,0 0,0 2,1 3,2 6,2 2,1 6,1 9,1 0,0 1,-1 2,-1z"/>
    <g style="clip-path:url(#id7)">
     <g>
      <g>
       <rect class="fil1" x="-14" y="-6" width="85.3293" height="20.2947"/>
       <rect class="fil2" x="-14" y="14" width="85.3293" height="20.2947"/>
       <rect class="fil3" x="-14" y="34" width="85.3293" height="20.2947"/>
      </g>
     </g>
    </g>
    <path class="fil2" d="M48 38c1,0 1,0 2,0 -1,3 -13,5 -19,-2 0,0 0,0 0,0 2,1 3,2 6,2 2,1 6,1 9,1 0,0 1,-1 2,-1z"/>
    <path class="fil0" d="M32 35c2,1 5,2 8,1 3,0 7,-1 9,-2 3,-1 5,-1 6,-2 1,4 -14,11 -24,3 0,0 1,0 1,0z"/>
    <g style="clip-path:url(#id8)">
     <g>
      <g>
       <rect class="fil1" x="-14" y="-6" width="85.3293" height="20.2947"/>
       <rect class="fil2" x="-14" y="14" width="85.3293" height="20.2947"/>
       <rect class="fil3" x="-14" y="34" width="85.3293" height="20.2947"/>
      </g>
     </g>
    </g>
    <path class="fil2" d="M32 35c2,1 5,2 8,1 3,0 7,-1 9,-2 3,-1 5,-1 6,-2 1,4 -14,11 -24,3 0,0 1,0 1,0z"/>
    <path class="fil0" d="M54 26c2,-1 3,-2 4,-3 2,5 -13,18 -26,11 0,0 0,0 0,0 7,2 14,0 19,-5 1,-1 3,-2 3,-3z"/>
    <g style="clip-path:url(#id9)">
     <g>
      <g>
       <rect class="fil1" x="-14" y="-6" width="85.3293" height="20.2947"/>
       <rect class="fil2" x="-14" y="14" width="85.3293" height="20.2947"/>
       <rect class="fil3" x="-14" y="34" width="85.3293" height="20.2947"/>
      </g>
     </g>
    </g>
    <path class="fil2" d="M54 26c2,-1 3,-2 4,-3 2,5 -13,18 -26,11 0,0 0,0 0,0 7,2 14,0 19,-5 1,-1 3,-2 3,-3z"/>
    <path class="fil0" d="M54 20c1,-1 3,-3 4,-4 3,4 -10,22 -26,18 0,0 0,0 0,-1 4,1 7,0 11,-2 3,-1 6,-4 9,-7 0,-1 1,-2 2,-4z"/>
    <g style="clip-path:url(#id10)">
     <g>
      <g>
       <rect class="fil1" x="-14" y="-6" width="85.3293" height="20.2947"/>
       <rect class="fil2" x="-14" y="14" width="85.3293" height="20.2947"/>
       <rect class="fil3" x="-14" y="34" width="85.3293" height="20.2947"/>
      </g>
     </g>
    </g>
    <path class="fil2" d="M54 20c1,-1 3,-3 4,-4 3,4 -10,22 -26,18 0,0 0,0 0,-1 4,1 7,0 11,-2 3,-1 6,-4 9,-7 0,-1 1,-2 2,-4z"/>
    <path class="fil0" d="M50 18c2,-3 4,-7 5,-9 5,4 -6,25 -23,24 0,0 0,0 0,0 8,-1 14,-7 17,-14 1,0 1,-1 1,-1z"/>
    <g style="clip-path:url(#id11)">
     <g>
      <g>
       <rect class="fil1" x="-14" y="-6" width="85.3293" height="20.2947"/>
       <rect class="fil2" x="-14" y="14" width="85.3293" height="20.2947"/>
       <rect class="fil3" x="-14" y="34" width="85.3293" height="20.2947"/>
      </g>
     </g>
    </g>
    <path class="fil2" d="M50 18c2,-3 4,-7 5,-9 5,4 -6,25 -23,24 0,0 0,0 0,0 8,-1 14,-7 17,-14 1,0 1,-1 1,-1z"/>
    <path class="fil0" d="M47 14c1,-4 2,-7 3,-10 5,3 -1,26 -18,28 0,0 0,0 0,0 3,-1 6,-3 8,-5 3,-3 5,-7 6,-11 0,-1 0,-2 1,-2z"/>
    <g style="clip-path:url(#id12)">
     <g>
      <g>
       <rect class="fil1" x="-14" y="-6" width="85.3293" height="20.2947"/>
       <rect class="fil2" x="-14" y="14" width="85.3293" height="20.2947"/>
       <rect class="fil3" x="-14" y="34" width="85.3293" height="20.2947"/>
      </g>
     </g>
    </g>
    <path class="fil2" d="M47 14c1,-4 2,-7 3,-10 5,3 -1,26 -18,28 0,0 0,0 0,0 3,-1 6,-3 8,-5 3,-3 5,-7 6,-11 0,-1 0,-2 1,-2z"/>
    <path class="fil0" d="M32 30c8,-6 12,-21 12,-30 5,2 4,26 -12,32 0,-1 0,-1 0,-2z"/>
    <g style="clip-path:url(#id13)">
     <g>
      <g>
       <rect class="fil1" x="-14" y="-6" width="85.3293" height="20.2947"/>
       <rect class="fil2" x="-14" y="14" width="85.3293" height="20.2947"/>
       <rect class="fil3" x="-14" y="34" width="85.3293" height="20.2947"/>
      </g>
     </g>
    </g>
    <path class="fil2" d="M32 30c8,-6 12,-21 12,-30 5,2 4,26 -12,32 0,-1 0,-1 0,-2z"/>
   </g>
   <g>
    <circle class="fil4" cx="29" cy="31" r="13"/>
    <circle class="fil0" cx="29" cy="31" r="12"/>
   </g>
  </g>
 </g>
</svg>
